<mxfile host="Electron" agent="Mozilla/5.0 (Windows NT 10.0; Win64; x64) AppleWebKit/537.36 (KHTML, like Gecko) draw.io/26.0.16 Chrome/132.0.6834.196 Electron/34.2.0 Safari/537.36" version="26.0.16" pages="4">
  <diagram name="Esercizio_1" id="7F3WDxiNtOPNIvxVBFRR">
    <mxGraphModel dx="1434" dy="836" grid="1" gridSize="10" guides="1" tooltips="1" connect="1" arrows="1" fold="1" page="1" pageScale="1" pageWidth="1169" pageHeight="827" math="0" shadow="0">
      <root>
        <mxCell id="0" />
        <mxCell id="1" parent="0" />
        <mxCell id="olzj5brkccg9PguEOHg6-23" style="edgeStyle=orthogonalEdgeStyle;rounded=0;orthogonalLoop=1;jettySize=auto;html=1;endArrow=none;startFill=0;" parent="1" source="olzj5brkccg9PguEOHg6-1" target="olzj5brkccg9PguEOHg6-21" edge="1">
          <mxGeometry relative="1" as="geometry" />
        </mxCell>
        <mxCell id="olzj5brkccg9PguEOHg6-31" value="(0,n)" style="edgeLabel;html=1;align=center;verticalAlign=middle;resizable=0;points=[];" parent="olzj5brkccg9PguEOHg6-23" vertex="1" connectable="0">
          <mxGeometry x="0.081" y="-1" relative="1" as="geometry">
            <mxPoint as="offset" />
          </mxGeometry>
        </mxCell>
        <mxCell id="olzj5brkccg9PguEOHg6-1" value="CORSI" style="rounded=0;whiteSpace=wrap;html=1;" parent="1" vertex="1">
          <mxGeometry x="160" y="130" width="120" height="60" as="geometry" />
        </mxCell>
        <mxCell id="olzj5brkccg9PguEOHg6-6" style="edgeStyle=orthogonalEdgeStyle;rounded=0;orthogonalLoop=1;jettySize=auto;html=1;endArrow=oval;endFill=1;exitX=0.5;exitY=0;exitDx=0;exitDy=0;entryX=0;entryY=0.5;entryDx=0;entryDy=0;" parent="1" source="olzj5brkccg9PguEOHg6-1" target="olzj5brkccg9PguEOHg6-2" edge="1">
          <mxGeometry relative="1" as="geometry" />
        </mxCell>
        <mxCell id="olzj5brkccg9PguEOHg6-2" value="codice" style="text;html=1;align=left;verticalAlign=middle;whiteSpace=wrap;rounded=0;spacingLeft=4;" parent="1" vertex="1">
          <mxGeometry x="289" y="40" width="60" height="30" as="geometry" />
        </mxCell>
        <mxCell id="olzj5brkccg9PguEOHg6-13" style="edgeStyle=orthogonalEdgeStyle;rounded=0;orthogonalLoop=1;jettySize=auto;html=1;endArrow=oval;endFill=0;exitX=0.5;exitY=0;exitDx=0;exitDy=0;entryX=0;entryY=0.5;entryDx=0;entryDy=0;" parent="1" source="olzj5brkccg9PguEOHg6-1" target="olzj5brkccg9PguEOHg6-3" edge="1">
          <mxGeometry relative="1" as="geometry" />
        </mxCell>
        <mxCell id="olzj5brkccg9PguEOHg6-3" value="titolo" style="text;html=1;align=left;verticalAlign=middle;whiteSpace=wrap;rounded=0;spacingLeft=4;" parent="1" vertex="1">
          <mxGeometry x="289" y="60" width="60" height="30" as="geometry" />
        </mxCell>
        <mxCell id="olzj5brkccg9PguEOHg6-20" style="edgeStyle=orthogonalEdgeStyle;rounded=0;orthogonalLoop=1;jettySize=auto;html=1;endArrow=oval;endFill=0;exitX=0.5;exitY=0;exitDx=0;exitDy=0;entryX=0;entryY=0.5;entryDx=0;entryDy=0;" parent="1" source="olzj5brkccg9PguEOHg6-1" target="olzj5brkccg9PguEOHg6-4" edge="1">
          <mxGeometry relative="1" as="geometry">
            <Array as="points">
              <mxPoint x="220" y="90" />
            </Array>
          </mxGeometry>
        </mxCell>
        <mxCell id="olzj5brkccg9PguEOHg6-4" value="durata" style="text;html=1;align=left;verticalAlign=middle;whiteSpace=wrap;rounded=0;spacingLeft=4;" parent="1" vertex="1">
          <mxGeometry x="289" y="70" width="60" height="40" as="geometry" />
        </mxCell>
        <mxCell id="olzj5brkccg9PguEOHg6-24" value="" style="edgeStyle=orthogonalEdgeStyle;rounded=0;orthogonalLoop=1;jettySize=auto;html=1;endArrow=none;startFill=0;" parent="1" source="olzj5brkccg9PguEOHg6-21" target="olzj5brkccg9PguEOHg6-22" edge="1">
          <mxGeometry relative="1" as="geometry" />
        </mxCell>
        <mxCell id="olzj5brkccg9PguEOHg6-28" value="(1,1)" style="edgeLabel;html=1;align=center;verticalAlign=middle;resizable=0;points=[];" parent="olzj5brkccg9PguEOHg6-24" vertex="1" connectable="0">
          <mxGeometry x="0.1131" y="1" relative="1" as="geometry">
            <mxPoint as="offset" />
          </mxGeometry>
        </mxCell>
        <mxCell id="olzj5brkccg9PguEOHg6-21" value="fanno parte di" style="rhombus;whiteSpace=wrap;html=1;" parent="1" vertex="1">
          <mxGeometry x="160" y="230" width="120" height="80" as="geometry" />
        </mxCell>
        <mxCell id="olzj5brkccg9PguEOHg6-22" value="EDIZIONI" style="rounded=0;whiteSpace=wrap;html=1;" parent="1" vertex="1">
          <mxGeometry x="160" y="370" width="120" height="60" as="geometry" />
        </mxCell>
        <mxCell id="olzj5brkccg9PguEOHg6-34" style="edgeStyle=orthogonalEdgeStyle;rounded=0;orthogonalLoop=1;jettySize=auto;html=1;exitX=1;exitY=0.5;exitDx=0;exitDy=0;endArrow=oval;endFill=0;entryX=0;entryY=0.5;entryDx=0;entryDy=0;" parent="1" source="olzj5brkccg9PguEOHg6-22" target="olzj5brkccg9PguEOHg6-32" edge="1">
          <mxGeometry relative="1" as="geometry" />
        </mxCell>
        <mxCell id="olzj5brkccg9PguEOHg6-32" value="data inizio" style="text;html=1;align=left;verticalAlign=middle;whiteSpace=wrap;rounded=0;spacingLeft=4;" parent="1" vertex="1">
          <mxGeometry x="350" y="360" width="80" height="40" as="geometry" />
        </mxCell>
        <mxCell id="olzj5brkccg9PguEOHg6-42" style="edgeStyle=orthogonalEdgeStyle;rounded=0;orthogonalLoop=1;jettySize=auto;html=1;exitX=1;exitY=0.5;exitDx=0;exitDy=0;endArrow=oval;endFill=0;entryX=0;entryY=0.5;entryDx=0;entryDy=0;" parent="1" source="olzj5brkccg9PguEOHg6-22" target="olzj5brkccg9PguEOHg6-33" edge="1">
          <mxGeometry relative="1" as="geometry" />
        </mxCell>
        <mxCell id="olzj5brkccg9PguEOHg6-33" value="data fine" style="text;html=1;align=left;verticalAlign=middle;whiteSpace=wrap;rounded=0;spacingLeft=4;" parent="1" vertex="1">
          <mxGeometry x="350" y="400" width="60" height="30" as="geometry" />
        </mxCell>
        <mxCell id="olzj5brkccg9PguEOHg6-86" style="edgeStyle=orthogonalEdgeStyle;rounded=0;orthogonalLoop=1;jettySize=auto;html=1;exitX=0.5;exitY=0;exitDx=0;exitDy=0;entryX=0;entryY=0.5;entryDx=0;entryDy=0;endArrow=oval;endFill=0;" parent="1" source="olzj5brkccg9PguEOHg6-1" target="olzj5brkccg9PguEOHg6-37" edge="1">
          <mxGeometry relative="1" as="geometry" />
        </mxCell>
        <mxCell id="olzj5brkccg9PguEOHg6-37" value="area" style="text;html=1;align=left;verticalAlign=middle;whiteSpace=wrap;rounded=0;spacingLeft=4;" parent="1" vertex="1">
          <mxGeometry x="289" y="90" width="60" height="30" as="geometry" />
        </mxCell>
        <mxCell id="olzj5brkccg9PguEOHg6-44" style="edgeStyle=orthogonalEdgeStyle;rounded=0;orthogonalLoop=1;jettySize=auto;html=1;exitX=1;exitY=0.5;exitDx=0;exitDy=0;align=left;spacingLeft=4;endArrow=oval;endFill=0;" parent="1" source="olzj5brkccg9PguEOHg6-22" target="olzj5brkccg9PguEOHg6-43" edge="1">
          <mxGeometry relative="1" as="geometry" />
        </mxCell>
        <mxCell id="olzj5brkccg9PguEOHg6-43" value="orario inizio" style="text;html=1;align=center;verticalAlign=middle;whiteSpace=wrap;rounded=0;" parent="1" vertex="1">
          <mxGeometry x="350" y="430" width="80" height="30" as="geometry" />
        </mxCell>
        <mxCell id="olzj5brkccg9PguEOHg6-52" value="" style="endArrow=oval;html=1;rounded=0;endFill=1;" parent="1" edge="1">
          <mxGeometry width="50" height="50" relative="1" as="geometry">
            <mxPoint x="170" y="224" as="sourcePoint" />
            <mxPoint x="340" y="510" as="targetPoint" />
            <Array as="points">
              <mxPoint x="340" y="224" />
            </Array>
          </mxGeometry>
        </mxCell>
        <mxCell id="olzj5brkccg9PguEOHg6-88" style="edgeStyle=orthogonalEdgeStyle;rounded=0;orthogonalLoop=1;jettySize=auto;html=1;exitX=1;exitY=0.5;exitDx=0;exitDy=0;endArrow=none;endFill=0;entryX=0;entryY=0.5;entryDx=0;entryDy=0;startFill=0;" parent="1" source="olzj5brkccg9PguEOHg6-22" target="olzj5brkccg9PguEOHg6-87" edge="1">
          <mxGeometry relative="1" as="geometry" />
        </mxCell>
        <mxCell id="olzj5brkccg9PguEOHg6-87" value="LUOGO" style="ellipse;whiteSpace=wrap;html=1;" parent="1" vertex="1">
          <mxGeometry x="350" y="470" width="120" height="40" as="geometry" />
        </mxCell>
        <mxCell id="olzj5brkccg9PguEOHg6-94" style="edgeStyle=orthogonalEdgeStyle;rounded=0;orthogonalLoop=1;jettySize=auto;html=1;exitX=1;exitY=0.5;exitDx=0;exitDy=0;entryX=0;entryY=0.5;entryDx=0;entryDy=0;endArrow=oval;endFill=0;" parent="1" source="olzj5brkccg9PguEOHg6-87" target="olzj5brkccg9PguEOHg6-89" edge="1">
          <mxGeometry relative="1" as="geometry" />
        </mxCell>
        <mxCell id="olzj5brkccg9PguEOHg6-89" value="denominazione sociale" style="text;html=1;align=left;verticalAlign=middle;whiteSpace=wrap;rounded=0;spacingLeft=4;" parent="1" vertex="1">
          <mxGeometry x="550" y="400" width="160" height="30" as="geometry" />
        </mxCell>
        <mxCell id="olzj5brkccg9PguEOHg6-99" style="edgeStyle=orthogonalEdgeStyle;rounded=0;orthogonalLoop=1;jettySize=auto;html=1;exitX=1;exitY=0.5;exitDx=0;exitDy=0;endArrow=oval;endFill=0;" parent="1" source="olzj5brkccg9PguEOHg6-87" target="olzj5brkccg9PguEOHg6-95" edge="1">
          <mxGeometry relative="1" as="geometry" />
        </mxCell>
        <mxCell id="olzj5brkccg9PguEOHg6-95" value="via (0,1)" style="text;html=1;align=left;verticalAlign=middle;whiteSpace=wrap;rounded=0;spacingLeft=4;" parent="1" vertex="1">
          <mxGeometry x="550" y="460" width="60" height="30" as="geometry" />
        </mxCell>
        <mxCell id="olzj5brkccg9PguEOHg6-100" style="edgeStyle=orthogonalEdgeStyle;rounded=0;orthogonalLoop=1;jettySize=auto;html=1;endArrow=oval;endFill=0;exitX=1;exitY=0.5;exitDx=0;exitDy=0;" parent="1" source="olzj5brkccg9PguEOHg6-87" target="olzj5brkccg9PguEOHg6-96" edge="1">
          <mxGeometry relative="1" as="geometry" />
        </mxCell>
        <mxCell id="olzj5brkccg9PguEOHg6-96" value="no (0,1)" style="text;html=1;align=left;verticalAlign=middle;whiteSpace=wrap;rounded=0;spacingLeft=4;" parent="1" vertex="1">
          <mxGeometry x="550" y="490" width="60" height="30" as="geometry" />
        </mxCell>
        <mxCell id="olzj5brkccg9PguEOHg6-101" style="edgeStyle=orthogonalEdgeStyle;rounded=0;orthogonalLoop=1;jettySize=auto;html=1;endArrow=oval;endFill=0;exitX=1;exitY=0.5;exitDx=0;exitDy=0;entryX=0;entryY=0.5;entryDx=0;entryDy=0;" parent="1" source="olzj5brkccg9PguEOHg6-87" target="olzj5brkccg9PguEOHg6-97" edge="1">
          <mxGeometry relative="1" as="geometry" />
        </mxCell>
        <mxCell id="olzj5brkccg9PguEOHg6-97" value="cap (0,1)" style="text;html=1;align=left;verticalAlign=middle;whiteSpace=wrap;rounded=0;spacingLeft=4;" parent="1" vertex="1">
          <mxGeometry x="550" y="520" width="60" height="30" as="geometry" />
        </mxCell>
        <mxCell id="olzj5brkccg9PguEOHg6-104" style="edgeStyle=orthogonalEdgeStyle;rounded=0;orthogonalLoop=1;jettySize=auto;html=1;exitX=1;exitY=0.5;exitDx=0;exitDy=0;endArrow=oval;endFill=0;entryX=0;entryY=0.5;entryDx=0;entryDy=0;" parent="1" source="olzj5brkccg9PguEOHg6-87" target="olzj5brkccg9PguEOHg6-98" edge="1">
          <mxGeometry relative="1" as="geometry" />
        </mxCell>
        <mxCell id="olzj5brkccg9PguEOHg6-98" value="citta (0,1)" style="text;html=1;align=left;verticalAlign=middle;whiteSpace=wrap;rounded=0;spacingLeft=4;" parent="1" vertex="1">
          <mxGeometry x="550" y="550" width="60" height="30" as="geometry" />
        </mxCell>
        <mxCell id="OGoXH2mqYrYcthSJqBYZ-2" style="edgeStyle=orthogonalEdgeStyle;rounded=0;orthogonalLoop=1;jettySize=auto;html=1;endArrow=oval;endFill=0;exitX=1;exitY=0.5;exitDx=0;exitDy=0;entryX=0;entryY=0.5;entryDx=0;entryDy=0;" edge="1" parent="1" source="olzj5brkccg9PguEOHg6-87" target="OGoXH2mqYrYcthSJqBYZ-1">
          <mxGeometry relative="1" as="geometry" />
        </mxCell>
        <mxCell id="OGoXH2mqYrYcthSJqBYZ-1" value="nome sala" style="text;html=1;align=left;verticalAlign=middle;whiteSpace=wrap;rounded=0;spacingLeft=4;" vertex="1" parent="1">
          <mxGeometry x="550" y="430" width="90" height="30" as="geometry" />
        </mxCell>
      </root>
    </mxGraphModel>
  </diagram>
  <diagram id="A5Fb-Kbdoww6jo1nrNxs" name="Esercizio_2">
    <mxGraphModel dx="1434" dy="836" grid="1" gridSize="10" guides="1" tooltips="1" connect="1" arrows="1" fold="1" page="1" pageScale="1" pageWidth="1169" pageHeight="827" math="0" shadow="0">
      <root>
        <mxCell id="0" />
        <mxCell id="1" parent="0" />
        <mxCell id="cgNXf4ciRk1ASybGcH0n-29" style="edgeStyle=orthogonalEdgeStyle;rounded=0;orthogonalLoop=1;jettySize=auto;html=1;entryX=0;entryY=0.5;entryDx=0;entryDy=0;endArrow=none;startFill=0;" parent="1" source="0XdhlObOlelNJZRrLMfN-1" target="cgNXf4ciRk1ASybGcH0n-27" edge="1">
          <mxGeometry relative="1" as="geometry">
            <Array as="points">
              <mxPoint x="70" y="140" />
              <mxPoint x="70" y="479" />
            </Array>
          </mxGeometry>
        </mxCell>
        <mxCell id="cgNXf4ciRk1ASybGcH0n-30" value="(1,n)" style="edgeLabel;html=1;align=center;verticalAlign=middle;resizable=0;points=[];" parent="cgNXf4ciRk1ASybGcH0n-29" vertex="1" connectable="0">
          <mxGeometry x="0.0745" y="2" relative="1" as="geometry">
            <mxPoint as="offset" />
          </mxGeometry>
        </mxCell>
        <mxCell id="0XdhlObOlelNJZRrLMfN-1" value="DOCENTI" style="rounded=0;whiteSpace=wrap;html=1;" parent="1" vertex="1">
          <mxGeometry x="250" y="110" width="120" height="60" as="geometry" />
        </mxCell>
        <mxCell id="0XdhlObOlelNJZRrLMfN-5" style="edgeStyle=orthogonalEdgeStyle;rounded=0;orthogonalLoop=1;jettySize=auto;html=1;entryX=0.5;entryY=1;entryDx=0;entryDy=0;" parent="1" source="0XdhlObOlelNJZRrLMfN-3" target="0XdhlObOlelNJZRrLMfN-1" edge="1">
          <mxGeometry relative="1" as="geometry">
            <Array as="points">
              <mxPoint x="220" y="200" />
              <mxPoint x="310" y="200" />
            </Array>
          </mxGeometry>
        </mxCell>
        <mxCell id="0XdhlObOlelNJZRrLMfN-3" value="DIPENDENTI" style="rounded=0;whiteSpace=wrap;html=1;" parent="1" vertex="1">
          <mxGeometry x="160" y="240" width="120" height="40" as="geometry" />
        </mxCell>
        <mxCell id="0XdhlObOlelNJZRrLMfN-7" style="edgeStyle=orthogonalEdgeStyle;rounded=0;orthogonalLoop=1;jettySize=auto;html=1;entryX=0.5;entryY=1;entryDx=0;entryDy=0;" parent="1" source="0XdhlObOlelNJZRrLMfN-4" target="0XdhlObOlelNJZRrLMfN-1" edge="1">
          <mxGeometry relative="1" as="geometry">
            <Array as="points">
              <mxPoint x="420" y="200" />
              <mxPoint x="310" y="200" />
            </Array>
          </mxGeometry>
        </mxCell>
        <mxCell id="0XdhlObOlelNJZRrLMfN-4" value="COLLABORATORI ESTERNI" style="rounded=0;whiteSpace=wrap;html=1;" parent="1" vertex="1">
          <mxGeometry x="380" y="240" width="120" height="40" as="geometry" />
        </mxCell>
        <mxCell id="0XdhlObOlelNJZRrLMfN-9" style="edgeStyle=orthogonalEdgeStyle;rounded=0;orthogonalLoop=1;jettySize=auto;html=1;exitX=1;exitY=0.5;exitDx=0;exitDy=0;endArrow=oval;endFill=1;" parent="1" source="0XdhlObOlelNJZRrLMfN-1" target="0XdhlObOlelNJZRrLMfN-8" edge="1">
          <mxGeometry relative="1" as="geometry" />
        </mxCell>
        <mxCell id="0XdhlObOlelNJZRrLMfN-8" value="codice fiscale" style="text;html=1;align=left;verticalAlign=middle;whiteSpace=wrap;rounded=0;spacingLeft=4;" parent="1" vertex="1">
          <mxGeometry x="430" y="90" width="130" height="30" as="geometry" />
        </mxCell>
        <mxCell id="0XdhlObOlelNJZRrLMfN-13" style="edgeStyle=orthogonalEdgeStyle;rounded=0;orthogonalLoop=1;jettySize=auto;html=1;exitX=1;exitY=0.5;exitDx=0;exitDy=0;endArrow=oval;endFill=0;" parent="1" source="0XdhlObOlelNJZRrLMfN-1" target="0XdhlObOlelNJZRrLMfN-10" edge="1">
          <mxGeometry relative="1" as="geometry" />
        </mxCell>
        <mxCell id="0XdhlObOlelNJZRrLMfN-10" value="nome" style="text;html=1;align=left;verticalAlign=middle;whiteSpace=wrap;rounded=0;spacingLeft=4;" parent="1" vertex="1">
          <mxGeometry x="430" y="110" width="60" height="30" as="geometry" />
        </mxCell>
        <mxCell id="0XdhlObOlelNJZRrLMfN-12" style="edgeStyle=orthogonalEdgeStyle;rounded=0;orthogonalLoop=1;jettySize=auto;html=1;exitX=1;exitY=0.5;exitDx=0;exitDy=0;endArrow=oval;endFill=0;" parent="1" source="0XdhlObOlelNJZRrLMfN-1" target="0XdhlObOlelNJZRrLMfN-11" edge="1">
          <mxGeometry relative="1" as="geometry" />
        </mxCell>
        <mxCell id="0XdhlObOlelNJZRrLMfN-11" value="cognome" style="text;html=1;align=center;verticalAlign=middle;whiteSpace=wrap;rounded=0;spacingLeft=4;" parent="1" vertex="1">
          <mxGeometry x="430" y="125" width="60" height="30" as="geometry" />
        </mxCell>
        <mxCell id="0XdhlObOlelNJZRrLMfN-15" style="edgeStyle=orthogonalEdgeStyle;rounded=0;orthogonalLoop=1;jettySize=auto;html=1;exitX=1;exitY=0.5;exitDx=0;exitDy=0;endArrow=oval;endFill=0;" parent="1" source="0XdhlObOlelNJZRrLMfN-1" target="0XdhlObOlelNJZRrLMfN-14" edge="1">
          <mxGeometry relative="1" as="geometry" />
        </mxCell>
        <mxCell id="0XdhlObOlelNJZRrLMfN-14" value="data di nascita" style="text;html=1;align=left;verticalAlign=middle;whiteSpace=wrap;rounded=0;spacingLeft=4;" parent="1" vertex="1">
          <mxGeometry x="430" y="140" width="130" height="30" as="geometry" />
        </mxCell>
        <mxCell id="0XdhlObOlelNJZRrLMfN-17" style="edgeStyle=orthogonalEdgeStyle;rounded=0;orthogonalLoop=1;jettySize=auto;html=1;exitX=1;exitY=0.5;exitDx=0;exitDy=0;endArrow=oval;endFill=0;spacingLeft=4;align=left;" parent="1" source="0XdhlObOlelNJZRrLMfN-1" target="0XdhlObOlelNJZRrLMfN-16" edge="1">
          <mxGeometry relative="1" as="geometry" />
        </mxCell>
        <mxCell id="0XdhlObOlelNJZRrLMfN-16" value="luogo di nascita" style="text;html=1;align=left;verticalAlign=middle;whiteSpace=wrap;rounded=0;spacingLeft=4;" parent="1" vertex="1">
          <mxGeometry x="430" y="160" width="90" height="20" as="geometry" />
        </mxCell>
        <mxCell id="J1ZLUZu_8mK6pZkIBb_a-6" style="edgeStyle=orthogonalEdgeStyle;rounded=0;orthogonalLoop=1;jettySize=auto;html=1;exitX=0.5;exitY=1;exitDx=0;exitDy=0;endArrow=oval;endFill=1;" parent="1" source="0XdhlObOlelNJZRrLMfN-3" target="J1ZLUZu_8mK6pZkIBb_a-1" edge="1">
          <mxGeometry relative="1" as="geometry" />
        </mxCell>
        <mxCell id="J1ZLUZu_8mK6pZkIBb_a-1" value="matricola" style="text;html=1;align=center;verticalAlign=middle;whiteSpace=wrap;rounded=0;" parent="1" vertex="1">
          <mxGeometry x="150" y="310" width="60" height="30" as="geometry" />
        </mxCell>
        <mxCell id="J1ZLUZu_8mK6pZkIBb_a-5" style="edgeStyle=orthogonalEdgeStyle;rounded=0;orthogonalLoop=1;jettySize=auto;html=1;exitX=0.5;exitY=1;exitDx=0;exitDy=0;endArrow=oval;endFill=0;" parent="1" source="0XdhlObOlelNJZRrLMfN-3" target="J1ZLUZu_8mK6pZkIBb_a-2" edge="1">
          <mxGeometry relative="1" as="geometry" />
        </mxCell>
        <mxCell id="J1ZLUZu_8mK6pZkIBb_a-2" value="livello" style="text;html=1;align=center;verticalAlign=middle;whiteSpace=wrap;rounded=0;" parent="1" vertex="1">
          <mxGeometry x="230" y="310" width="60" height="30" as="geometry" />
        </mxCell>
        <mxCell id="J1ZLUZu_8mK6pZkIBb_a-4" style="edgeStyle=orthogonalEdgeStyle;rounded=0;orthogonalLoop=1;jettySize=auto;html=1;exitX=0.5;exitY=1;exitDx=0;exitDy=0;endArrow=oval;endFill=1;" parent="1" source="0XdhlObOlelNJZRrLMfN-4" target="J1ZLUZu_8mK6pZkIBb_a-3" edge="1">
          <mxGeometry relative="1" as="geometry" />
        </mxCell>
        <mxCell id="J1ZLUZu_8mK6pZkIBb_a-3" value="partita IVA" style="text;html=1;align=left;verticalAlign=middle;whiteSpace=wrap;rounded=0;" parent="1" vertex="1">
          <mxGeometry x="410" y="310" width="60" height="30" as="geometry" />
        </mxCell>
        <mxCell id="J1ZLUZu_8mK6pZkIBb_a-10" style="edgeStyle=orthogonalEdgeStyle;rounded=0;orthogonalLoop=1;jettySize=auto;html=1;exitX=1;exitY=0.5;exitDx=0;exitDy=0;endArrow=oval;endFill=0;entryX=0;entryY=0.5;entryDx=0;entryDy=0;" parent="1" source="0XdhlObOlelNJZRrLMfN-1" target="J1ZLUZu_8mK6pZkIBb_a-9" edge="1">
          <mxGeometry relative="1" as="geometry" />
        </mxCell>
        <mxCell id="J1ZLUZu_8mK6pZkIBb_a-9" value="recapiti telefonici (0,n)" style="text;html=1;align=center;verticalAlign=middle;whiteSpace=wrap;rounded=0;" parent="1" vertex="1">
          <mxGeometry x="430" y="170" width="130" height="30" as="geometry" />
        </mxCell>
        <mxCell id="-U6ks3tToC-BSDBslR0X-10" style="edgeStyle=orthogonalEdgeStyle;rounded=0;orthogonalLoop=1;jettySize=auto;html=1;entryX=0;entryY=0.5;entryDx=0;entryDy=0;endArrow=none;startFill=0;" parent="1" source="J1ZLUZu_8mK6pZkIBb_a-13" target="-U6ks3tToC-BSDBslR0X-1" edge="1">
          <mxGeometry relative="1" as="geometry" />
        </mxCell>
        <mxCell id="-U6ks3tToC-BSDBslR0X-14" value="(1,n)" style="edgeLabel;html=1;align=center;verticalAlign=middle;resizable=0;points=[];" parent="-U6ks3tToC-BSDBslR0X-10" vertex="1" connectable="0">
          <mxGeometry x="-0.1664" y="1" relative="1" as="geometry">
            <mxPoint as="offset" />
          </mxGeometry>
        </mxCell>
        <mxCell id="-U6ks3tToC-BSDBslR0X-15" style="edgeStyle=orthogonalEdgeStyle;rounded=0;orthogonalLoop=1;jettySize=auto;html=1;exitX=0;exitY=0.5;exitDx=0;exitDy=0;entryX=0.5;entryY=0;entryDx=0;entryDy=0;endArrow=none;startFill=0;" parent="1" source="J1ZLUZu_8mK6pZkIBb_a-13" target="0XdhlObOlelNJZRrLMfN-1" edge="1">
          <mxGeometry relative="1" as="geometry">
            <Array as="points">
              <mxPoint x="540" y="120" />
              <mxPoint x="540" y="20" />
              <mxPoint x="310" y="20" />
            </Array>
          </mxGeometry>
        </mxCell>
        <mxCell id="-U6ks3tToC-BSDBslR0X-16" value="(1,n)" style="edgeLabel;html=1;align=center;verticalAlign=middle;resizable=0;points=[];" parent="-U6ks3tToC-BSDBslR0X-15" vertex="1" connectable="0">
          <mxGeometry x="0.1233" relative="1" as="geometry">
            <mxPoint as="offset" />
          </mxGeometry>
        </mxCell>
        <mxCell id="J1ZLUZu_8mK6pZkIBb_a-13" value="abilitati" style="rhombus;whiteSpace=wrap;html=1;" parent="1" vertex="1">
          <mxGeometry x="585" y="80" width="80" height="80" as="geometry" />
        </mxCell>
        <mxCell id="cgNXf4ciRk1ASybGcH0n-26" style="edgeStyle=orthogonalEdgeStyle;rounded=0;orthogonalLoop=1;jettySize=auto;html=1;entryX=0.5;entryY=0;entryDx=0;entryDy=0;" parent="1" source="-U6ks3tToC-BSDBslR0X-1" target="cgNXf4ciRk1ASybGcH0n-4" edge="1">
          <mxGeometry relative="1" as="geometry" />
        </mxCell>
        <mxCell id="-U6ks3tToC-BSDBslR0X-1" value="CORSI" style="rounded=0;whiteSpace=wrap;html=1;" parent="1" vertex="1">
          <mxGeometry x="750" y="90" width="120" height="60" as="geometry" />
        </mxCell>
        <mxCell id="-U6ks3tToC-BSDBslR0X-2" style="edgeStyle=orthogonalEdgeStyle;rounded=0;orthogonalLoop=1;jettySize=auto;html=1;endArrow=oval;endFill=1;exitX=0.5;exitY=0;exitDx=0;exitDy=0;entryX=0;entryY=0.5;entryDx=0;entryDy=0;" parent="1" source="-U6ks3tToC-BSDBslR0X-1" target="-U6ks3tToC-BSDBslR0X-3" edge="1">
          <mxGeometry relative="1" as="geometry" />
        </mxCell>
        <mxCell id="-U6ks3tToC-BSDBslR0X-3" value="codice" style="text;html=1;align=left;verticalAlign=middle;whiteSpace=wrap;rounded=0;spacingLeft=4;" parent="1" vertex="1">
          <mxGeometry x="879" width="60" height="30" as="geometry" />
        </mxCell>
        <mxCell id="-U6ks3tToC-BSDBslR0X-4" style="edgeStyle=orthogonalEdgeStyle;rounded=0;orthogonalLoop=1;jettySize=auto;html=1;endArrow=oval;endFill=0;exitX=0.5;exitY=0;exitDx=0;exitDy=0;entryX=0;entryY=0.5;entryDx=0;entryDy=0;" parent="1" source="-U6ks3tToC-BSDBslR0X-1" target="-U6ks3tToC-BSDBslR0X-5" edge="1">
          <mxGeometry relative="1" as="geometry" />
        </mxCell>
        <mxCell id="-U6ks3tToC-BSDBslR0X-5" value="titolo" style="text;html=1;align=left;verticalAlign=middle;whiteSpace=wrap;rounded=0;spacingLeft=4;" parent="1" vertex="1">
          <mxGeometry x="879" y="20" width="60" height="30" as="geometry" />
        </mxCell>
        <mxCell id="-U6ks3tToC-BSDBslR0X-6" style="edgeStyle=orthogonalEdgeStyle;rounded=0;orthogonalLoop=1;jettySize=auto;html=1;endArrow=oval;endFill=0;exitX=0.5;exitY=0;exitDx=0;exitDy=0;entryX=0;entryY=0.5;entryDx=0;entryDy=0;" parent="1" source="-U6ks3tToC-BSDBslR0X-1" target="-U6ks3tToC-BSDBslR0X-7" edge="1">
          <mxGeometry relative="1" as="geometry">
            <Array as="points">
              <mxPoint x="810" y="50" />
            </Array>
          </mxGeometry>
        </mxCell>
        <mxCell id="-U6ks3tToC-BSDBslR0X-7" value="durata" style="text;html=1;align=left;verticalAlign=middle;whiteSpace=wrap;rounded=0;spacingLeft=4;" parent="1" vertex="1">
          <mxGeometry x="879" y="30" width="60" height="40" as="geometry" />
        </mxCell>
        <mxCell id="-U6ks3tToC-BSDBslR0X-8" style="edgeStyle=orthogonalEdgeStyle;rounded=0;orthogonalLoop=1;jettySize=auto;html=1;exitX=0.5;exitY=0;exitDx=0;exitDy=0;entryX=0;entryY=0.5;entryDx=0;entryDy=0;endArrow=oval;endFill=0;" parent="1" source="-U6ks3tToC-BSDBslR0X-1" target="-U6ks3tToC-BSDBslR0X-9" edge="1">
          <mxGeometry relative="1" as="geometry" />
        </mxCell>
        <mxCell id="-U6ks3tToC-BSDBslR0X-9" value="area" style="text;html=1;align=left;verticalAlign=middle;whiteSpace=wrap;rounded=0;spacingLeft=4;" parent="1" vertex="1">
          <mxGeometry x="879" y="50" width="60" height="30" as="geometry" />
        </mxCell>
        <mxCell id="cgNXf4ciRk1ASybGcH0n-1" value="(0,n)" style="edgeLabel;html=1;align=center;verticalAlign=middle;resizable=0;points=[];" parent="1" vertex="1" connectable="0">
          <mxGeometry x="800" y="230.00111111111107" as="geometry" />
        </mxCell>
        <mxCell id="cgNXf4ciRk1ASybGcH0n-2" value="" style="edgeStyle=orthogonalEdgeStyle;rounded=0;orthogonalLoop=1;jettySize=auto;html=1;endArrow=none;startFill=0;" parent="1" source="cgNXf4ciRk1ASybGcH0n-4" target="cgNXf4ciRk1ASybGcH0n-5" edge="1">
          <mxGeometry relative="1" as="geometry" />
        </mxCell>
        <mxCell id="cgNXf4ciRk1ASybGcH0n-3" value="(1,1)" style="edgeLabel;html=1;align=center;verticalAlign=middle;resizable=0;points=[];" parent="cgNXf4ciRk1ASybGcH0n-2" vertex="1" connectable="0">
          <mxGeometry x="0.1131" y="1" relative="1" as="geometry">
            <mxPoint as="offset" />
          </mxGeometry>
        </mxCell>
        <mxCell id="cgNXf4ciRk1ASybGcH0n-4" value="fanno parte di" style="rhombus;whiteSpace=wrap;html=1;" parent="1" vertex="1">
          <mxGeometry x="750" y="310" width="120" height="80" as="geometry" />
        </mxCell>
        <mxCell id="cgNXf4ciRk1ASybGcH0n-5" value="EDIZIONI" style="rounded=0;whiteSpace=wrap;html=1;" parent="1" vertex="1">
          <mxGeometry x="750" y="448.89" width="120" height="60" as="geometry" />
        </mxCell>
        <mxCell id="cgNXf4ciRk1ASybGcH0n-6" style="edgeStyle=orthogonalEdgeStyle;rounded=0;orthogonalLoop=1;jettySize=auto;html=1;exitX=1;exitY=0.5;exitDx=0;exitDy=0;endArrow=oval;endFill=0;entryX=0;entryY=0.5;entryDx=0;entryDy=0;" parent="1" source="cgNXf4ciRk1ASybGcH0n-5" target="cgNXf4ciRk1ASybGcH0n-7" edge="1">
          <mxGeometry relative="1" as="geometry" />
        </mxCell>
        <mxCell id="cgNXf4ciRk1ASybGcH0n-7" value="data inizio" style="text;html=1;align=left;verticalAlign=middle;whiteSpace=wrap;rounded=0;spacingLeft=4;" parent="1" vertex="1">
          <mxGeometry x="930" y="438.89" width="80" height="40" as="geometry" />
        </mxCell>
        <mxCell id="cgNXf4ciRk1ASybGcH0n-8" style="edgeStyle=orthogonalEdgeStyle;rounded=0;orthogonalLoop=1;jettySize=auto;html=1;exitX=1;exitY=0.5;exitDx=0;exitDy=0;endArrow=oval;endFill=0;entryX=0;entryY=0.5;entryDx=0;entryDy=0;" parent="1" source="cgNXf4ciRk1ASybGcH0n-5" target="cgNXf4ciRk1ASybGcH0n-9" edge="1">
          <mxGeometry relative="1" as="geometry" />
        </mxCell>
        <mxCell id="cgNXf4ciRk1ASybGcH0n-9" value="data fine" style="text;html=1;align=left;verticalAlign=middle;whiteSpace=wrap;rounded=0;spacingLeft=4;" parent="1" vertex="1">
          <mxGeometry x="930" y="478.89" width="60" height="30" as="geometry" />
        </mxCell>
        <mxCell id="cgNXf4ciRk1ASybGcH0n-10" style="edgeStyle=orthogonalEdgeStyle;rounded=0;orthogonalLoop=1;jettySize=auto;html=1;exitX=1;exitY=0.5;exitDx=0;exitDy=0;align=left;spacingLeft=4;endArrow=oval;endFill=0;" parent="1" source="cgNXf4ciRk1ASybGcH0n-5" target="cgNXf4ciRk1ASybGcH0n-11" edge="1">
          <mxGeometry relative="1" as="geometry" />
        </mxCell>
        <mxCell id="cgNXf4ciRk1ASybGcH0n-11" value="orario inizio" style="text;html=1;align=center;verticalAlign=middle;whiteSpace=wrap;rounded=0;" parent="1" vertex="1">
          <mxGeometry x="930" y="508.89" width="80" height="30" as="geometry" />
        </mxCell>
        <mxCell id="cgNXf4ciRk1ASybGcH0n-12" value="" style="endArrow=oval;html=1;rounded=0;endFill=1;" parent="1" edge="1">
          <mxGeometry width="50" height="50" relative="1" as="geometry">
            <mxPoint x="750" y="252.89" as="sourcePoint" />
            <mxPoint x="920" y="600" as="targetPoint" />
            <Array as="points">
              <mxPoint x="920" y="252.89" />
            </Array>
          </mxGeometry>
        </mxCell>
        <mxCell id="cgNXf4ciRk1ASybGcH0n-13" style="edgeStyle=orthogonalEdgeStyle;rounded=0;orthogonalLoop=1;jettySize=auto;html=1;exitX=1;exitY=0.5;exitDx=0;exitDy=0;endArrow=none;endFill=0;entryX=0;entryY=0.5;entryDx=0;entryDy=0;startFill=0;" parent="1" source="cgNXf4ciRk1ASybGcH0n-5" target="cgNXf4ciRk1ASybGcH0n-14" edge="1">
          <mxGeometry relative="1" as="geometry" />
        </mxCell>
        <mxCell id="cgNXf4ciRk1ASybGcH0n-14" value="LUOGO" style="ellipse;whiteSpace=wrap;html=1;" parent="1" vertex="1">
          <mxGeometry x="930" y="548.89" width="120" height="40" as="geometry" />
        </mxCell>
        <mxCell id="cgNXf4ciRk1ASybGcH0n-15" style="edgeStyle=orthogonalEdgeStyle;rounded=0;orthogonalLoop=1;jettySize=auto;html=1;exitX=1;exitY=0.5;exitDx=0;exitDy=0;entryX=0;entryY=0.5;entryDx=0;entryDy=0;endArrow=oval;endFill=0;" parent="1" source="cgNXf4ciRk1ASybGcH0n-14" target="cgNXf4ciRk1ASybGcH0n-16" edge="1">
          <mxGeometry relative="1" as="geometry" />
        </mxCell>
        <mxCell id="cgNXf4ciRk1ASybGcH0n-16" value="denominazione sociale" style="text;html=1;align=left;verticalAlign=middle;whiteSpace=wrap;rounded=0;spacingLeft=4;" parent="1" vertex="1">
          <mxGeometry x="1130" y="478.89" width="140" height="30" as="geometry" />
        </mxCell>
        <mxCell id="cgNXf4ciRk1ASybGcH0n-17" style="edgeStyle=orthogonalEdgeStyle;rounded=0;orthogonalLoop=1;jettySize=auto;html=1;exitX=1;exitY=0.5;exitDx=0;exitDy=0;endArrow=oval;endFill=0;" parent="1" source="cgNXf4ciRk1ASybGcH0n-14" target="cgNXf4ciRk1ASybGcH0n-18" edge="1">
          <mxGeometry relative="1" as="geometry" />
        </mxCell>
        <mxCell id="cgNXf4ciRk1ASybGcH0n-18" value="via (0,1)" style="text;html=1;align=left;verticalAlign=middle;whiteSpace=wrap;rounded=0;spacingLeft=4;" parent="1" vertex="1">
          <mxGeometry x="1130" y="538.89" width="60" height="30" as="geometry" />
        </mxCell>
        <mxCell id="cgNXf4ciRk1ASybGcH0n-19" style="edgeStyle=orthogonalEdgeStyle;rounded=0;orthogonalLoop=1;jettySize=auto;html=1;endArrow=oval;endFill=0;exitX=1;exitY=0.5;exitDx=0;exitDy=0;" parent="1" source="cgNXf4ciRk1ASybGcH0n-14" target="cgNXf4ciRk1ASybGcH0n-20" edge="1">
          <mxGeometry relative="1" as="geometry" />
        </mxCell>
        <mxCell id="cgNXf4ciRk1ASybGcH0n-20" value="no (0,1)" style="text;html=1;align=left;verticalAlign=middle;whiteSpace=wrap;rounded=0;spacingLeft=4;" parent="1" vertex="1">
          <mxGeometry x="1130" y="568.89" width="60" height="30" as="geometry" />
        </mxCell>
        <mxCell id="cgNXf4ciRk1ASybGcH0n-21" style="edgeStyle=orthogonalEdgeStyle;rounded=0;orthogonalLoop=1;jettySize=auto;html=1;endArrow=oval;endFill=0;exitX=1;exitY=0.5;exitDx=0;exitDy=0;entryX=0;entryY=0.5;entryDx=0;entryDy=0;" parent="1" source="cgNXf4ciRk1ASybGcH0n-14" target="cgNXf4ciRk1ASybGcH0n-22" edge="1">
          <mxGeometry relative="1" as="geometry" />
        </mxCell>
        <mxCell id="cgNXf4ciRk1ASybGcH0n-22" value="cap (0,1)" style="text;html=1;align=left;verticalAlign=middle;whiteSpace=wrap;rounded=0;spacingLeft=4;" parent="1" vertex="1">
          <mxGeometry x="1130" y="598.89" width="60" height="30" as="geometry" />
        </mxCell>
        <mxCell id="cgNXf4ciRk1ASybGcH0n-23" style="edgeStyle=orthogonalEdgeStyle;rounded=0;orthogonalLoop=1;jettySize=auto;html=1;exitX=1;exitY=0.5;exitDx=0;exitDy=0;endArrow=oval;endFill=0;entryX=0;entryY=0.5;entryDx=0;entryDy=0;" parent="1" source="cgNXf4ciRk1ASybGcH0n-14" target="cgNXf4ciRk1ASybGcH0n-24" edge="1">
          <mxGeometry relative="1" as="geometry" />
        </mxCell>
        <mxCell id="cgNXf4ciRk1ASybGcH0n-24" value="citta (0,1)" style="text;html=1;align=left;verticalAlign=middle;whiteSpace=wrap;rounded=0;spacingLeft=4;" parent="1" vertex="1">
          <mxGeometry x="1130" y="628.89" width="60" height="30" as="geometry" />
        </mxCell>
        <mxCell id="cgNXf4ciRk1ASybGcH0n-28" style="edgeStyle=orthogonalEdgeStyle;rounded=0;orthogonalLoop=1;jettySize=auto;html=1;entryX=0;entryY=0.5;entryDx=0;entryDy=0;endArrow=none;startFill=0;" parent="1" source="cgNXf4ciRk1ASybGcH0n-27" target="cgNXf4ciRk1ASybGcH0n-5" edge="1">
          <mxGeometry relative="1" as="geometry" />
        </mxCell>
        <mxCell id="cgNXf4ciRk1ASybGcH0n-31" value="(1,1)" style="edgeLabel;html=1;align=center;verticalAlign=middle;resizable=0;points=[];" parent="cgNXf4ciRk1ASybGcH0n-28" vertex="1" connectable="0">
          <mxGeometry x="0.0195" y="-2" relative="1" as="geometry">
            <mxPoint as="offset" />
          </mxGeometry>
        </mxCell>
        <mxCell id="cgNXf4ciRk1ASybGcH0n-27" value="tengono" style="rhombus;whiteSpace=wrap;html=1;" parent="1" vertex="1">
          <mxGeometry x="210" y="438.89" width="120" height="80" as="geometry" />
        </mxCell>
        <mxCell id="ReL2qUNtdyBwB-WNwAx5-2" style="edgeStyle=orthogonalEdgeStyle;rounded=0;orthogonalLoop=1;jettySize=auto;html=1;exitX=1;exitY=0.5;exitDx=0;exitDy=0;endArrow=oval;endFill=0;entryX=0;entryY=0.5;entryDx=0;entryDy=0;" edge="1" parent="1" source="cgNXf4ciRk1ASybGcH0n-14" target="ReL2qUNtdyBwB-WNwAx5-1">
          <mxGeometry relative="1" as="geometry" />
        </mxCell>
        <mxCell id="ReL2qUNtdyBwB-WNwAx5-1" value="nome sala" style="text;html=1;align=left;verticalAlign=middle;whiteSpace=wrap;rounded=0;spacingLeft=4;" vertex="1" parent="1">
          <mxGeometry x="1130" y="508.89" width="70" height="30" as="geometry" />
        </mxCell>
      </root>
    </mxGraphModel>
  </diagram>
  <diagram id="HPPzhW_QfeU5RDnsYrWq" name="Esercizio_3">
    <mxGraphModel dx="989" dy="577" grid="1" gridSize="10" guides="1" tooltips="1" connect="1" arrows="1" fold="1" page="1" pageScale="1" pageWidth="1169" pageHeight="827" math="0" shadow="0">
      <root>
        <mxCell id="0" />
        <mxCell id="1" parent="0" />
        <mxCell id="JrSCRSYbAdrZNCsylYNU-2" style="edgeStyle=orthogonalEdgeStyle;rounded=0;orthogonalLoop=1;jettySize=auto;html=1;exitX=0.5;exitY=1;exitDx=0;exitDy=0;entryX=0.5;entryY=0;entryDx=0;entryDy=0;endArrow=none;startFill=0;" edge="1" parent="1" source="ZQqvgKP3PAFiKGR2Rz6f-1" target="kmTS1xkJBAt74BJLgrOf-1">
          <mxGeometry relative="1" as="geometry" />
        </mxCell>
        <mxCell id="JrSCRSYbAdrZNCsylYNU-3" value="(1,n)" style="edgeLabel;html=1;align=center;verticalAlign=middle;resizable=0;points=[];" vertex="1" connectable="0" parent="JrSCRSYbAdrZNCsylYNU-2">
          <mxGeometry x="0.2" y="-1" relative="1" as="geometry">
            <mxPoint as="offset" />
          </mxGeometry>
        </mxCell>
        <mxCell id="ZQqvgKP3PAFiKGR2Rz6f-1" value="PARTECIPANTI" style="rounded=0;whiteSpace=wrap;html=1;" vertex="1" parent="1">
          <mxGeometry x="120" y="320" width="120" height="50" as="geometry" />
        </mxCell>
        <mxCell id="JrSCRSYbAdrZNCsylYNU-8" style="edgeStyle=orthogonalEdgeStyle;rounded=0;orthogonalLoop=1;jettySize=auto;html=1;endArrow=oval;endFill=1;exitX=1;exitY=0.5;exitDx=0;exitDy=0;entryX=0;entryY=0.5;entryDx=0;entryDy=0;" edge="1" parent="1" source="ZQqvgKP3PAFiKGR2Rz6f-1" target="ZQqvgKP3PAFiKGR2Rz6f-2">
          <mxGeometry relative="1" as="geometry" />
        </mxCell>
        <mxCell id="ZQqvgKP3PAFiKGR2Rz6f-2" value="codice fiscale" style="text;html=1;align=left;verticalAlign=middle;whiteSpace=wrap;rounded=0;spacingLeft=4;" vertex="1" parent="1">
          <mxGeometry x="280" y="190" width="90" height="30" as="geometry" />
        </mxCell>
        <mxCell id="JrSCRSYbAdrZNCsylYNU-9" style="edgeStyle=orthogonalEdgeStyle;rounded=0;orthogonalLoop=1;jettySize=auto;html=1;endArrow=oval;endFill=0;exitX=1;exitY=0.5;exitDx=0;exitDy=0;entryX=0;entryY=0.5;entryDx=0;entryDy=0;" edge="1" parent="1" source="ZQqvgKP3PAFiKGR2Rz6f-1" target="ZQqvgKP3PAFiKGR2Rz6f-3">
          <mxGeometry relative="1" as="geometry" />
        </mxCell>
        <mxCell id="ZQqvgKP3PAFiKGR2Rz6f-3" value="nome" style="text;html=1;align=left;verticalAlign=middle;whiteSpace=wrap;rounded=0;spacingLeft=4;" vertex="1" parent="1">
          <mxGeometry x="280" y="210" width="60" height="30" as="geometry" />
        </mxCell>
        <mxCell id="JrSCRSYbAdrZNCsylYNU-10" style="edgeStyle=orthogonalEdgeStyle;rounded=0;orthogonalLoop=1;jettySize=auto;html=1;exitX=1;exitY=0.5;exitDx=0;exitDy=0;endArrow=oval;endFill=0;entryX=0;entryY=0.5;entryDx=0;entryDy=0;" edge="1" parent="1" source="ZQqvgKP3PAFiKGR2Rz6f-1" target="ZQqvgKP3PAFiKGR2Rz6f-4">
          <mxGeometry relative="1" as="geometry" />
        </mxCell>
        <mxCell id="ZQqvgKP3PAFiKGR2Rz6f-4" value="cognome" style="text;html=1;align=left;verticalAlign=middle;whiteSpace=wrap;rounded=0;spacingLeft=4;" vertex="1" parent="1">
          <mxGeometry x="280" y="230" width="60" height="30" as="geometry" />
        </mxCell>
        <mxCell id="JrSCRSYbAdrZNCsylYNU-11" style="edgeStyle=orthogonalEdgeStyle;rounded=0;orthogonalLoop=1;jettySize=auto;html=1;endArrow=oval;endFill=0;exitX=1;exitY=0.5;exitDx=0;exitDy=0;entryX=0;entryY=0.5;entryDx=0;entryDy=0;" edge="1" parent="1" source="ZQqvgKP3PAFiKGR2Rz6f-1" target="ZQqvgKP3PAFiKGR2Rz6f-5">
          <mxGeometry relative="1" as="geometry" />
        </mxCell>
        <mxCell id="ZQqvgKP3PAFiKGR2Rz6f-5" value="data di nascita" style="text;html=1;align=left;verticalAlign=middle;whiteSpace=wrap;rounded=0;spacingLeft=4;" vertex="1" parent="1">
          <mxGeometry x="280" y="250" width="120" height="30" as="geometry" />
        </mxCell>
        <mxCell id="JrSCRSYbAdrZNCsylYNU-15" style="edgeStyle=orthogonalEdgeStyle;rounded=0;orthogonalLoop=1;jettySize=auto;html=1;exitX=1;exitY=0.5;exitDx=0;exitDy=0;entryX=0;entryY=0.5;entryDx=0;entryDy=0;endArrow=oval;endFill=0;" edge="1" parent="1" source="ZQqvgKP3PAFiKGR2Rz6f-1" target="ZQqvgKP3PAFiKGR2Rz6f-6">
          <mxGeometry relative="1" as="geometry" />
        </mxCell>
        <mxCell id="ZQqvgKP3PAFiKGR2Rz6f-6" value="luogo di nascita" style="text;html=1;align=left;verticalAlign=middle;whiteSpace=wrap;rounded=0;spacingLeft=4;" vertex="1" parent="1">
          <mxGeometry x="280" y="270" width="120" height="30" as="geometry" />
        </mxCell>
        <mxCell id="JrSCRSYbAdrZNCsylYNU-16" style="edgeStyle=orthogonalEdgeStyle;rounded=0;orthogonalLoop=1;jettySize=auto;html=1;exitX=1;exitY=0.5;exitDx=0;exitDy=0;endArrow=oval;endFill=0;entryX=0;entryY=0.5;entryDx=0;entryDy=0;" edge="1" parent="1" source="ZQqvgKP3PAFiKGR2Rz6f-1" target="ZQqvgKP3PAFiKGR2Rz6f-7">
          <mxGeometry relative="1" as="geometry" />
        </mxCell>
        <mxCell id="ZQqvgKP3PAFiKGR2Rz6f-7" value="aree di interesse (0,n)" style="text;html=1;align=left;verticalAlign=middle;whiteSpace=wrap;rounded=0;spacingLeft=4;" vertex="1" parent="1">
          <mxGeometry x="280" y="310" width="140" height="30" as="geometry" />
        </mxCell>
        <mxCell id="JrSCRSYbAdrZNCsylYNU-17" style="edgeStyle=orthogonalEdgeStyle;rounded=0;orthogonalLoop=1;jettySize=auto;html=1;exitX=1;exitY=0.5;exitDx=0;exitDy=0;endArrow=oval;endFill=0;entryX=0;entryY=0.5;entryDx=0;entryDy=0;" edge="1" parent="1" source="ZQqvgKP3PAFiKGR2Rz6f-1" target="ZQqvgKP3PAFiKGR2Rz6f-8">
          <mxGeometry relative="1" as="geometry" />
        </mxCell>
        <mxCell id="JrSCRSYbAdrZNCsylYNU-25" style="edgeStyle=orthogonalEdgeStyle;rounded=0;orthogonalLoop=1;jettySize=auto;html=1;exitX=1;exitY=0.5;exitDx=0;exitDy=0;endArrow=oval;endFill=0;" edge="1" parent="1" source="ZQqvgKP3PAFiKGR2Rz6f-1" target="ZQqvgKP3PAFiKGR2Rz6f-9">
          <mxGeometry relative="1" as="geometry" />
        </mxCell>
        <mxCell id="ZQqvgKP3PAFiKGR2Rz6f-9" value="numero di telefono" style="text;html=1;align=left;verticalAlign=middle;whiteSpace=wrap;rounded=0;spacingLeft=4;" vertex="1" parent="1">
          <mxGeometry x="280" y="350" width="120" height="30" as="geometry" />
        </mxCell>
        <mxCell id="JrSCRSYbAdrZNCsylYNU-7" style="edgeStyle=orthogonalEdgeStyle;rounded=0;orthogonalLoop=1;jettySize=auto;html=1;exitX=0;exitY=0.5;exitDx=0;exitDy=0;entryX=1;entryY=0.5;entryDx=0;entryDy=0;endArrow=oval;endFill=0;" edge="1" parent="1" target="JrSCRSYbAdrZNCsylYNU-6">
          <mxGeometry relative="1" as="geometry">
            <mxPoint x="140" y="469" as="sourcePoint" />
            <mxPoint x="90" y="474" as="targetPoint" />
          </mxGeometry>
        </mxCell>
        <mxCell id="kmTS1xkJBAt74BJLgrOf-1" value="partecipano" style="rhombus;whiteSpace=wrap;html=1;" vertex="1" parent="1">
          <mxGeometry x="140" y="430" width="80" height="80" as="geometry" />
        </mxCell>
        <mxCell id="JrSCRSYbAdrZNCsylYNU-4" style="edgeStyle=orthogonalEdgeStyle;rounded=0;orthogonalLoop=1;jettySize=auto;html=1;exitX=0.5;exitY=0;exitDx=0;exitDy=0;entryX=0.5;entryY=1;entryDx=0;entryDy=0;endArrow=none;endFill=1;startFill=0;" edge="1" parent="1" source="JrSCRSYbAdrZNCsylYNU-1" target="kmTS1xkJBAt74BJLgrOf-1">
          <mxGeometry relative="1" as="geometry" />
        </mxCell>
        <mxCell id="JrSCRSYbAdrZNCsylYNU-5" value="(1,n)" style="edgeLabel;html=1;align=center;verticalAlign=middle;resizable=0;points=[];" vertex="1" connectable="0" parent="JrSCRSYbAdrZNCsylYNU-4">
          <mxGeometry x="0.0857" y="3" relative="1" as="geometry">
            <mxPoint as="offset" />
          </mxGeometry>
        </mxCell>
        <mxCell id="JrSCRSYbAdrZNCsylYNU-1" value="EDIZIONI" style="rounded=0;whiteSpace=wrap;html=1;" vertex="1" parent="1">
          <mxGeometry x="120" y="580" width="120" height="60" as="geometry" />
        </mxCell>
        <mxCell id="JrSCRSYbAdrZNCsylYNU-6" value="giudizio (0,1)" style="text;html=1;align=center;verticalAlign=middle;whiteSpace=wrap;rounded=0;" vertex="1" parent="1">
          <mxGeometry x="10" y="455" width="80" height="30" as="geometry" />
        </mxCell>
        <mxCell id="JrSCRSYbAdrZNCsylYNU-21" style="edgeStyle=orthogonalEdgeStyle;rounded=0;orthogonalLoop=1;jettySize=auto;html=1;exitX=1;exitY=0.5;exitDx=0;exitDy=0;endArrow=oval;endFill=0;entryX=0;entryY=0.5;entryDx=0;entryDy=0;" edge="1" parent="1" source="ZQqvgKP3PAFiKGR2Rz6f-1" target="JrSCRSYbAdrZNCsylYNU-19">
          <mxGeometry relative="1" as="geometry" />
        </mxCell>
        <mxCell id="JrSCRSYbAdrZNCsylYNU-19" value="sesso" style="text;html=1;align=left;verticalAlign=middle;whiteSpace=wrap;rounded=0;spacingLeft=4;" vertex="1" parent="1">
          <mxGeometry x="280" y="290" width="60" height="30" as="geometry" />
        </mxCell>
        <mxCell id="JrSCRSYbAdrZNCsylYNU-24" value="" style="edgeStyle=orthogonalEdgeStyle;rounded=0;orthogonalLoop=1;jettySize=auto;html=1;exitX=1;exitY=0.5;exitDx=0;exitDy=0;endArrow=oval;endFill=0;" edge="1" parent="1" source="ZQqvgKP3PAFiKGR2Rz6f-1" target="ZQqvgKP3PAFiKGR2Rz6f-8">
          <mxGeometry relative="1" as="geometry">
            <mxPoint x="240" y="345" as="sourcePoint" />
            <mxPoint x="340" y="380" as="targetPoint" />
          </mxGeometry>
        </mxCell>
        <mxCell id="ZQqvgKP3PAFiKGR2Rz6f-8" value="azienda attuale" style="text;html=1;align=left;verticalAlign=middle;whiteSpace=wrap;rounded=0;spacingLeft=4;" vertex="1" parent="1">
          <mxGeometry x="280" y="330" width="120" height="30" as="geometry" />
        </mxCell>
      </root>
    </mxGraphModel>
  </diagram>
  <diagram name="Esercizio_4" id="lHhovz_e0uyGp6kL8xKq">
    <mxGraphModel dx="2206" dy="1286" grid="1" gridSize="10" guides="1" tooltips="1" connect="1" arrows="1" fold="1" page="1" pageScale="1" pageWidth="1169" pageHeight="827" math="0" shadow="0">
      <root>
        <mxCell id="d43gW3JYr1f1REupD9co-0" />
        <mxCell id="d43gW3JYr1f1REupD9co-1" parent="d43gW3JYr1f1REupD9co-0" />
        <mxCell id="d43gW3JYr1f1REupD9co-2" style="edgeStyle=orthogonalEdgeStyle;rounded=0;orthogonalLoop=1;jettySize=auto;html=1;entryX=0;entryY=0.5;entryDx=0;entryDy=0;endArrow=none;startFill=0;" edge="1" parent="d43gW3JYr1f1REupD9co-1" source="d43gW3JYr1f1REupD9co-4" target="d43gW3JYr1f1REupD9co-68">
          <mxGeometry relative="1" as="geometry">
            <Array as="points">
              <mxPoint x="40" y="180" />
              <mxPoint x="40" y="519" />
            </Array>
          </mxGeometry>
        </mxCell>
        <mxCell id="d43gW3JYr1f1REupD9co-3" value="(1,n)" style="edgeLabel;html=1;align=center;verticalAlign=middle;resizable=0;points=[];" vertex="1" connectable="0" parent="d43gW3JYr1f1REupD9co-2">
          <mxGeometry x="0.0745" y="2" relative="1" as="geometry">
            <mxPoint as="offset" />
          </mxGeometry>
        </mxCell>
        <mxCell id="d43gW3JYr1f1REupD9co-4" value="DOCENTI" style="rounded=0;whiteSpace=wrap;html=1;" vertex="1" parent="d43gW3JYr1f1REupD9co-1">
          <mxGeometry x="220" y="150" width="120" height="60" as="geometry" />
        </mxCell>
        <mxCell id="d43gW3JYr1f1REupD9co-5" style="edgeStyle=orthogonalEdgeStyle;rounded=0;orthogonalLoop=1;jettySize=auto;html=1;entryX=0.5;entryY=1;entryDx=0;entryDy=0;" edge="1" parent="d43gW3JYr1f1REupD9co-1" source="d43gW3JYr1f1REupD9co-6" target="d43gW3JYr1f1REupD9co-4">
          <mxGeometry relative="1" as="geometry">
            <Array as="points">
              <mxPoint x="190" y="240" />
              <mxPoint x="280" y="240" />
            </Array>
          </mxGeometry>
        </mxCell>
        <mxCell id="d43gW3JYr1f1REupD9co-6" value="DIPENDENTI" style="rounded=0;whiteSpace=wrap;html=1;" vertex="1" parent="d43gW3JYr1f1REupD9co-1">
          <mxGeometry x="130" y="280" width="120" height="40" as="geometry" />
        </mxCell>
        <mxCell id="d43gW3JYr1f1REupD9co-7" style="edgeStyle=orthogonalEdgeStyle;rounded=0;orthogonalLoop=1;jettySize=auto;html=1;entryX=0.5;entryY=1;entryDx=0;entryDy=0;" edge="1" parent="d43gW3JYr1f1REupD9co-1" source="d43gW3JYr1f1REupD9co-8" target="d43gW3JYr1f1REupD9co-4">
          <mxGeometry relative="1" as="geometry">
            <Array as="points">
              <mxPoint x="390" y="240" />
              <mxPoint x="280" y="240" />
            </Array>
          </mxGeometry>
        </mxCell>
        <mxCell id="d43gW3JYr1f1REupD9co-8" value="COLLABORATORI ESTERNI" style="rounded=0;whiteSpace=wrap;html=1;" vertex="1" parent="d43gW3JYr1f1REupD9co-1">
          <mxGeometry x="350" y="280" width="120" height="40" as="geometry" />
        </mxCell>
        <mxCell id="d43gW3JYr1f1REupD9co-9" style="edgeStyle=orthogonalEdgeStyle;rounded=0;orthogonalLoop=1;jettySize=auto;html=1;exitX=1;exitY=0.5;exitDx=0;exitDy=0;endArrow=oval;endFill=1;" edge="1" parent="d43gW3JYr1f1REupD9co-1" source="d43gW3JYr1f1REupD9co-4" target="d43gW3JYr1f1REupD9co-10">
          <mxGeometry relative="1" as="geometry" />
        </mxCell>
        <mxCell id="d43gW3JYr1f1REupD9co-10" value="codice fiscale" style="text;html=1;align=left;verticalAlign=middle;whiteSpace=wrap;rounded=0;spacingLeft=4;" vertex="1" parent="d43gW3JYr1f1REupD9co-1">
          <mxGeometry x="400" y="130" width="130" height="30" as="geometry" />
        </mxCell>
        <mxCell id="d43gW3JYr1f1REupD9co-11" style="edgeStyle=orthogonalEdgeStyle;rounded=0;orthogonalLoop=1;jettySize=auto;html=1;exitX=1;exitY=0.5;exitDx=0;exitDy=0;endArrow=oval;endFill=0;" edge="1" parent="d43gW3JYr1f1REupD9co-1" source="d43gW3JYr1f1REupD9co-4" target="d43gW3JYr1f1REupD9co-12">
          <mxGeometry relative="1" as="geometry" />
        </mxCell>
        <mxCell id="d43gW3JYr1f1REupD9co-12" value="nome" style="text;html=1;align=left;verticalAlign=middle;whiteSpace=wrap;rounded=0;spacingLeft=4;" vertex="1" parent="d43gW3JYr1f1REupD9co-1">
          <mxGeometry x="400" y="150" width="60" height="30" as="geometry" />
        </mxCell>
        <mxCell id="d43gW3JYr1f1REupD9co-13" style="edgeStyle=orthogonalEdgeStyle;rounded=0;orthogonalLoop=1;jettySize=auto;html=1;exitX=1;exitY=0.5;exitDx=0;exitDy=0;endArrow=oval;endFill=0;" edge="1" parent="d43gW3JYr1f1REupD9co-1" source="d43gW3JYr1f1REupD9co-4" target="d43gW3JYr1f1REupD9co-14">
          <mxGeometry relative="1" as="geometry" />
        </mxCell>
        <mxCell id="d43gW3JYr1f1REupD9co-14" value="cognome" style="text;html=1;align=center;verticalAlign=middle;whiteSpace=wrap;rounded=0;spacingLeft=4;" vertex="1" parent="d43gW3JYr1f1REupD9co-1">
          <mxGeometry x="400" y="165" width="60" height="30" as="geometry" />
        </mxCell>
        <mxCell id="d43gW3JYr1f1REupD9co-15" style="edgeStyle=orthogonalEdgeStyle;rounded=0;orthogonalLoop=1;jettySize=auto;html=1;exitX=1;exitY=0.5;exitDx=0;exitDy=0;endArrow=oval;endFill=0;" edge="1" parent="d43gW3JYr1f1REupD9co-1" source="d43gW3JYr1f1REupD9co-4" target="d43gW3JYr1f1REupD9co-16">
          <mxGeometry relative="1" as="geometry" />
        </mxCell>
        <mxCell id="d43gW3JYr1f1REupD9co-16" value="data di nascita" style="text;html=1;align=left;verticalAlign=middle;whiteSpace=wrap;rounded=0;spacingLeft=4;" vertex="1" parent="d43gW3JYr1f1REupD9co-1">
          <mxGeometry x="400" y="180" width="130" height="30" as="geometry" />
        </mxCell>
        <mxCell id="d43gW3JYr1f1REupD9co-17" style="edgeStyle=orthogonalEdgeStyle;rounded=0;orthogonalLoop=1;jettySize=auto;html=1;exitX=1;exitY=0.5;exitDx=0;exitDy=0;endArrow=oval;endFill=0;spacingLeft=4;align=left;" edge="1" parent="d43gW3JYr1f1REupD9co-1" source="d43gW3JYr1f1REupD9co-4" target="d43gW3JYr1f1REupD9co-18">
          <mxGeometry relative="1" as="geometry" />
        </mxCell>
        <mxCell id="d43gW3JYr1f1REupD9co-18" value="luogo di nascita" style="text;html=1;align=left;verticalAlign=middle;whiteSpace=wrap;rounded=0;spacingLeft=4;" vertex="1" parent="d43gW3JYr1f1REupD9co-1">
          <mxGeometry x="400" y="200" width="90" height="20" as="geometry" />
        </mxCell>
        <mxCell id="d43gW3JYr1f1REupD9co-19" style="edgeStyle=orthogonalEdgeStyle;rounded=0;orthogonalLoop=1;jettySize=auto;html=1;exitX=0.5;exitY=1;exitDx=0;exitDy=0;endArrow=oval;endFill=1;" edge="1" parent="d43gW3JYr1f1REupD9co-1" source="d43gW3JYr1f1REupD9co-6" target="d43gW3JYr1f1REupD9co-20">
          <mxGeometry relative="1" as="geometry" />
        </mxCell>
        <mxCell id="d43gW3JYr1f1REupD9co-20" value="matricola" style="text;html=1;align=center;verticalAlign=middle;whiteSpace=wrap;rounded=0;" vertex="1" parent="d43gW3JYr1f1REupD9co-1">
          <mxGeometry x="120" y="350" width="60" height="30" as="geometry" />
        </mxCell>
        <mxCell id="d43gW3JYr1f1REupD9co-21" style="edgeStyle=orthogonalEdgeStyle;rounded=0;orthogonalLoop=1;jettySize=auto;html=1;exitX=0.5;exitY=1;exitDx=0;exitDy=0;endArrow=oval;endFill=0;" edge="1" parent="d43gW3JYr1f1REupD9co-1" source="d43gW3JYr1f1REupD9co-6" target="d43gW3JYr1f1REupD9co-22">
          <mxGeometry relative="1" as="geometry" />
        </mxCell>
        <mxCell id="d43gW3JYr1f1REupD9co-22" value="livello" style="text;html=1;align=center;verticalAlign=middle;whiteSpace=wrap;rounded=0;" vertex="1" parent="d43gW3JYr1f1REupD9co-1">
          <mxGeometry x="200" y="350" width="60" height="30" as="geometry" />
        </mxCell>
        <mxCell id="d43gW3JYr1f1REupD9co-23" style="edgeStyle=orthogonalEdgeStyle;rounded=0;orthogonalLoop=1;jettySize=auto;html=1;exitX=0.5;exitY=1;exitDx=0;exitDy=0;endArrow=oval;endFill=1;" edge="1" parent="d43gW3JYr1f1REupD9co-1" source="d43gW3JYr1f1REupD9co-8" target="d43gW3JYr1f1REupD9co-24">
          <mxGeometry relative="1" as="geometry" />
        </mxCell>
        <mxCell id="d43gW3JYr1f1REupD9co-24" value="partita IVA" style="text;html=1;align=left;verticalAlign=middle;whiteSpace=wrap;rounded=0;" vertex="1" parent="d43gW3JYr1f1REupD9co-1">
          <mxGeometry x="380" y="350" width="60" height="30" as="geometry" />
        </mxCell>
        <mxCell id="d43gW3JYr1f1REupD9co-25" style="edgeStyle=orthogonalEdgeStyle;rounded=0;orthogonalLoop=1;jettySize=auto;html=1;exitX=1;exitY=0.5;exitDx=0;exitDy=0;endArrow=oval;endFill=0;entryX=0;entryY=0.5;entryDx=0;entryDy=0;" edge="1" parent="d43gW3JYr1f1REupD9co-1" source="d43gW3JYr1f1REupD9co-4" target="d43gW3JYr1f1REupD9co-26">
          <mxGeometry relative="1" as="geometry" />
        </mxCell>
        <mxCell id="d43gW3JYr1f1REupD9co-26" value="recapiti telefonici (0,n)" style="text;html=1;align=center;verticalAlign=middle;whiteSpace=wrap;rounded=0;" vertex="1" parent="d43gW3JYr1f1REupD9co-1">
          <mxGeometry x="400" y="210" width="130" height="30" as="geometry" />
        </mxCell>
        <mxCell id="d43gW3JYr1f1REupD9co-27" style="edgeStyle=orthogonalEdgeStyle;rounded=0;orthogonalLoop=1;jettySize=auto;html=1;entryX=0;entryY=0.5;entryDx=0;entryDy=0;endArrow=none;startFill=0;" edge="1" parent="d43gW3JYr1f1REupD9co-1" source="d43gW3JYr1f1REupD9co-31" target="d43gW3JYr1f1REupD9co-33">
          <mxGeometry relative="1" as="geometry" />
        </mxCell>
        <mxCell id="d43gW3JYr1f1REupD9co-28" value="(1,n)" style="edgeLabel;html=1;align=center;verticalAlign=middle;resizable=0;points=[];" vertex="1" connectable="0" parent="d43gW3JYr1f1REupD9co-27">
          <mxGeometry x="-0.1664" y="1" relative="1" as="geometry">
            <mxPoint as="offset" />
          </mxGeometry>
        </mxCell>
        <mxCell id="d43gW3JYr1f1REupD9co-29" style="edgeStyle=orthogonalEdgeStyle;rounded=0;orthogonalLoop=1;jettySize=auto;html=1;exitX=0;exitY=0.5;exitDx=0;exitDy=0;entryX=0.5;entryY=0;entryDx=0;entryDy=0;endArrow=none;startFill=0;" edge="1" parent="d43gW3JYr1f1REupD9co-1" source="d43gW3JYr1f1REupD9co-31" target="d43gW3JYr1f1REupD9co-4">
          <mxGeometry relative="1" as="geometry">
            <Array as="points">
              <mxPoint x="510" y="160" />
              <mxPoint x="510" y="60" />
              <mxPoint x="280" y="60" />
            </Array>
          </mxGeometry>
        </mxCell>
        <mxCell id="d43gW3JYr1f1REupD9co-30" value="(1,n)" style="edgeLabel;html=1;align=center;verticalAlign=middle;resizable=0;points=[];" vertex="1" connectable="0" parent="d43gW3JYr1f1REupD9co-29">
          <mxGeometry x="0.1233" relative="1" as="geometry">
            <mxPoint as="offset" />
          </mxGeometry>
        </mxCell>
        <mxCell id="d43gW3JYr1f1REupD9co-31" value="abilitati" style="rhombus;whiteSpace=wrap;html=1;" vertex="1" parent="d43gW3JYr1f1REupD9co-1">
          <mxGeometry x="555" y="120" width="80" height="80" as="geometry" />
        </mxCell>
        <mxCell id="d43gW3JYr1f1REupD9co-32" style="edgeStyle=orthogonalEdgeStyle;rounded=0;orthogonalLoop=1;jettySize=auto;html=1;entryX=0.5;entryY=0;entryDx=0;entryDy=0;" edge="1" parent="d43gW3JYr1f1REupD9co-1" source="d43gW3JYr1f1REupD9co-33" target="d43gW3JYr1f1REupD9co-45">
          <mxGeometry relative="1" as="geometry" />
        </mxCell>
        <mxCell id="d43gW3JYr1f1REupD9co-33" value="CORSI" style="rounded=0;whiteSpace=wrap;html=1;" vertex="1" parent="d43gW3JYr1f1REupD9co-1">
          <mxGeometry x="720" y="130" width="120" height="60" as="geometry" />
        </mxCell>
        <mxCell id="d43gW3JYr1f1REupD9co-34" style="edgeStyle=orthogonalEdgeStyle;rounded=0;orthogonalLoop=1;jettySize=auto;html=1;endArrow=oval;endFill=1;exitX=0.5;exitY=0;exitDx=0;exitDy=0;entryX=0;entryY=0.5;entryDx=0;entryDy=0;" edge="1" parent="d43gW3JYr1f1REupD9co-1" source="d43gW3JYr1f1REupD9co-33" target="d43gW3JYr1f1REupD9co-35">
          <mxGeometry relative="1" as="geometry" />
        </mxCell>
        <mxCell id="d43gW3JYr1f1REupD9co-35" value="codice" style="text;html=1;align=left;verticalAlign=middle;whiteSpace=wrap;rounded=0;spacingLeft=4;" vertex="1" parent="d43gW3JYr1f1REupD9co-1">
          <mxGeometry x="849" y="40" width="60" height="30" as="geometry" />
        </mxCell>
        <mxCell id="d43gW3JYr1f1REupD9co-36" style="edgeStyle=orthogonalEdgeStyle;rounded=0;orthogonalLoop=1;jettySize=auto;html=1;endArrow=oval;endFill=0;exitX=0.5;exitY=0;exitDx=0;exitDy=0;entryX=0;entryY=0.5;entryDx=0;entryDy=0;" edge="1" parent="d43gW3JYr1f1REupD9co-1" source="d43gW3JYr1f1REupD9co-33" target="d43gW3JYr1f1REupD9co-37">
          <mxGeometry relative="1" as="geometry" />
        </mxCell>
        <mxCell id="d43gW3JYr1f1REupD9co-37" value="titolo" style="text;html=1;align=left;verticalAlign=middle;whiteSpace=wrap;rounded=0;spacingLeft=4;" vertex="1" parent="d43gW3JYr1f1REupD9co-1">
          <mxGeometry x="849" y="60" width="60" height="30" as="geometry" />
        </mxCell>
        <mxCell id="d43gW3JYr1f1REupD9co-38" style="edgeStyle=orthogonalEdgeStyle;rounded=0;orthogonalLoop=1;jettySize=auto;html=1;endArrow=oval;endFill=0;exitX=0.5;exitY=0;exitDx=0;exitDy=0;entryX=0;entryY=0.5;entryDx=0;entryDy=0;" edge="1" parent="d43gW3JYr1f1REupD9co-1" source="d43gW3JYr1f1REupD9co-33" target="d43gW3JYr1f1REupD9co-39">
          <mxGeometry relative="1" as="geometry">
            <Array as="points">
              <mxPoint x="780" y="90" />
            </Array>
          </mxGeometry>
        </mxCell>
        <mxCell id="d43gW3JYr1f1REupD9co-39" value="durata" style="text;html=1;align=left;verticalAlign=middle;whiteSpace=wrap;rounded=0;spacingLeft=4;" vertex="1" parent="d43gW3JYr1f1REupD9co-1">
          <mxGeometry x="849" y="70" width="60" height="40" as="geometry" />
        </mxCell>
        <mxCell id="d43gW3JYr1f1REupD9co-40" style="edgeStyle=orthogonalEdgeStyle;rounded=0;orthogonalLoop=1;jettySize=auto;html=1;exitX=0.5;exitY=0;exitDx=0;exitDy=0;entryX=0;entryY=0.5;entryDx=0;entryDy=0;endArrow=oval;endFill=0;" edge="1" parent="d43gW3JYr1f1REupD9co-1" source="d43gW3JYr1f1REupD9co-33" target="d43gW3JYr1f1REupD9co-41">
          <mxGeometry relative="1" as="geometry" />
        </mxCell>
        <mxCell id="d43gW3JYr1f1REupD9co-41" value="area" style="text;html=1;align=left;verticalAlign=middle;whiteSpace=wrap;rounded=0;spacingLeft=4;" vertex="1" parent="d43gW3JYr1f1REupD9co-1">
          <mxGeometry x="849" y="90" width="60" height="30" as="geometry" />
        </mxCell>
        <mxCell id="d43gW3JYr1f1REupD9co-42" value="(0,n)" style="edgeLabel;html=1;align=center;verticalAlign=middle;resizable=0;points=[];" vertex="1" connectable="0" parent="d43gW3JYr1f1REupD9co-1">
          <mxGeometry x="770" y="270.0011111111111" as="geometry" />
        </mxCell>
        <mxCell id="d43gW3JYr1f1REupD9co-43" value="" style="edgeStyle=orthogonalEdgeStyle;rounded=0;orthogonalLoop=1;jettySize=auto;html=1;endArrow=none;startFill=0;" edge="1" parent="d43gW3JYr1f1REupD9co-1" source="d43gW3JYr1f1REupD9co-45" target="d43gW3JYr1f1REupD9co-46">
          <mxGeometry relative="1" as="geometry" />
        </mxCell>
        <mxCell id="d43gW3JYr1f1REupD9co-44" value="(1,1)" style="edgeLabel;html=1;align=center;verticalAlign=middle;resizable=0;points=[];" vertex="1" connectable="0" parent="d43gW3JYr1f1REupD9co-43">
          <mxGeometry x="0.1131" y="1" relative="1" as="geometry">
            <mxPoint as="offset" />
          </mxGeometry>
        </mxCell>
        <mxCell id="d43gW3JYr1f1REupD9co-45" value="fanno parte di" style="rhombus;whiteSpace=wrap;html=1;" vertex="1" parent="d43gW3JYr1f1REupD9co-1">
          <mxGeometry x="720" y="350" width="120" height="80" as="geometry" />
        </mxCell>
        <mxCell id="d43gW3JYr1f1REupD9co-46" value="EDIZIONI" style="rounded=0;whiteSpace=wrap;html=1;" vertex="1" parent="d43gW3JYr1f1REupD9co-1">
          <mxGeometry x="720" y="488.89" width="120" height="60" as="geometry" />
        </mxCell>
        <mxCell id="d43gW3JYr1f1REupD9co-47" style="edgeStyle=orthogonalEdgeStyle;rounded=0;orthogonalLoop=1;jettySize=auto;html=1;exitX=1;exitY=0.5;exitDx=0;exitDy=0;endArrow=oval;endFill=0;entryX=0;entryY=0.5;entryDx=0;entryDy=0;" edge="1" parent="d43gW3JYr1f1REupD9co-1" source="d43gW3JYr1f1REupD9co-46" target="d43gW3JYr1f1REupD9co-48">
          <mxGeometry relative="1" as="geometry" />
        </mxCell>
        <mxCell id="d43gW3JYr1f1REupD9co-48" value="data inizio" style="text;html=1;align=left;verticalAlign=middle;whiteSpace=wrap;rounded=0;spacingLeft=4;" vertex="1" parent="d43gW3JYr1f1REupD9co-1">
          <mxGeometry x="900" y="478.89" width="80" height="40" as="geometry" />
        </mxCell>
        <mxCell id="d43gW3JYr1f1REupD9co-49" style="edgeStyle=orthogonalEdgeStyle;rounded=0;orthogonalLoop=1;jettySize=auto;html=1;exitX=1;exitY=0.5;exitDx=0;exitDy=0;endArrow=oval;endFill=0;entryX=0;entryY=0.5;entryDx=0;entryDy=0;" edge="1" parent="d43gW3JYr1f1REupD9co-1" source="d43gW3JYr1f1REupD9co-46" target="d43gW3JYr1f1REupD9co-50">
          <mxGeometry relative="1" as="geometry" />
        </mxCell>
        <mxCell id="d43gW3JYr1f1REupD9co-50" value="data fine" style="text;html=1;align=left;verticalAlign=middle;whiteSpace=wrap;rounded=0;spacingLeft=4;" vertex="1" parent="d43gW3JYr1f1REupD9co-1">
          <mxGeometry x="900" y="518.89" width="60" height="30" as="geometry" />
        </mxCell>
        <mxCell id="d43gW3JYr1f1REupD9co-51" style="edgeStyle=orthogonalEdgeStyle;rounded=0;orthogonalLoop=1;jettySize=auto;html=1;exitX=1;exitY=0.5;exitDx=0;exitDy=0;align=left;spacingLeft=4;endArrow=oval;endFill=0;" edge="1" parent="d43gW3JYr1f1REupD9co-1" source="d43gW3JYr1f1REupD9co-46" target="d43gW3JYr1f1REupD9co-52">
          <mxGeometry relative="1" as="geometry" />
        </mxCell>
        <mxCell id="d43gW3JYr1f1REupD9co-52" value="orario inizio" style="text;html=1;align=center;verticalAlign=middle;whiteSpace=wrap;rounded=0;" vertex="1" parent="d43gW3JYr1f1REupD9co-1">
          <mxGeometry x="900" y="548.89" width="80" height="30" as="geometry" />
        </mxCell>
        <mxCell id="d43gW3JYr1f1REupD9co-53" value="" style="endArrow=oval;html=1;rounded=0;endFill=1;" edge="1" parent="d43gW3JYr1f1REupD9co-1">
          <mxGeometry width="50" height="50" relative="1" as="geometry">
            <mxPoint x="720" y="292.89" as="sourcePoint" />
            <mxPoint x="890" y="640" as="targetPoint" />
            <Array as="points">
              <mxPoint x="890" y="292.89" />
            </Array>
          </mxGeometry>
        </mxCell>
        <mxCell id="d43gW3JYr1f1REupD9co-54" style="edgeStyle=orthogonalEdgeStyle;rounded=0;orthogonalLoop=1;jettySize=auto;html=1;exitX=1;exitY=0.5;exitDx=0;exitDy=0;endArrow=none;endFill=0;entryX=0;entryY=0.5;entryDx=0;entryDy=0;startFill=0;" edge="1" parent="d43gW3JYr1f1REupD9co-1" source="d43gW3JYr1f1REupD9co-46" target="d43gW3JYr1f1REupD9co-55">
          <mxGeometry relative="1" as="geometry" />
        </mxCell>
        <mxCell id="d43gW3JYr1f1REupD9co-55" value="LUOGO" style="ellipse;whiteSpace=wrap;html=1;" vertex="1" parent="d43gW3JYr1f1REupD9co-1">
          <mxGeometry x="900" y="588.89" width="120" height="40" as="geometry" />
        </mxCell>
        <mxCell id="d43gW3JYr1f1REupD9co-56" style="edgeStyle=orthogonalEdgeStyle;rounded=0;orthogonalLoop=1;jettySize=auto;html=1;exitX=1;exitY=0.5;exitDx=0;exitDy=0;entryX=0;entryY=0.5;entryDx=0;entryDy=0;endArrow=oval;endFill=0;" edge="1" parent="d43gW3JYr1f1REupD9co-1" source="d43gW3JYr1f1REupD9co-55" target="d43gW3JYr1f1REupD9co-57">
          <mxGeometry relative="1" as="geometry" />
        </mxCell>
        <mxCell id="d43gW3JYr1f1REupD9co-57" value="denominazione sociale" style="text;html=1;align=left;verticalAlign=middle;whiteSpace=wrap;rounded=0;spacingLeft=4;" vertex="1" parent="d43gW3JYr1f1REupD9co-1">
          <mxGeometry x="1070" y="490" width="80" height="68.89" as="geometry" />
        </mxCell>
        <mxCell id="d43gW3JYr1f1REupD9co-58" style="edgeStyle=orthogonalEdgeStyle;rounded=0;orthogonalLoop=1;jettySize=auto;html=1;exitX=1;exitY=0.5;exitDx=0;exitDy=0;endArrow=oval;endFill=0;" edge="1" parent="d43gW3JYr1f1REupD9co-1" source="d43gW3JYr1f1REupD9co-55" target="d43gW3JYr1f1REupD9co-59">
          <mxGeometry relative="1" as="geometry" />
        </mxCell>
        <mxCell id="d43gW3JYr1f1REupD9co-59" value="via (0,1)" style="text;html=1;align=left;verticalAlign=middle;whiteSpace=wrap;rounded=0;spacingLeft=4;" vertex="1" parent="d43gW3JYr1f1REupD9co-1">
          <mxGeometry x="1070" y="578.89" width="60" height="30" as="geometry" />
        </mxCell>
        <mxCell id="d43gW3JYr1f1REupD9co-60" style="edgeStyle=orthogonalEdgeStyle;rounded=0;orthogonalLoop=1;jettySize=auto;html=1;endArrow=oval;endFill=0;exitX=1;exitY=0.5;exitDx=0;exitDy=0;" edge="1" parent="d43gW3JYr1f1REupD9co-1" source="d43gW3JYr1f1REupD9co-55" target="d43gW3JYr1f1REupD9co-61">
          <mxGeometry relative="1" as="geometry" />
        </mxCell>
        <mxCell id="d43gW3JYr1f1REupD9co-61" value="no (0,1)" style="text;html=1;align=left;verticalAlign=middle;whiteSpace=wrap;rounded=0;spacingLeft=4;" vertex="1" parent="d43gW3JYr1f1REupD9co-1">
          <mxGeometry x="1070" y="608.89" width="60" height="30" as="geometry" />
        </mxCell>
        <mxCell id="d43gW3JYr1f1REupD9co-62" style="edgeStyle=orthogonalEdgeStyle;rounded=0;orthogonalLoop=1;jettySize=auto;html=1;endArrow=oval;endFill=0;exitX=1;exitY=0.5;exitDx=0;exitDy=0;entryX=0;entryY=0.5;entryDx=0;entryDy=0;" edge="1" parent="d43gW3JYr1f1REupD9co-1" source="d43gW3JYr1f1REupD9co-55" target="d43gW3JYr1f1REupD9co-63">
          <mxGeometry relative="1" as="geometry" />
        </mxCell>
        <mxCell id="d43gW3JYr1f1REupD9co-63" value="cap (0,1)" style="text;html=1;align=left;verticalAlign=middle;whiteSpace=wrap;rounded=0;spacingLeft=4;" vertex="1" parent="d43gW3JYr1f1REupD9co-1">
          <mxGeometry x="1070" y="638.89" width="60" height="30" as="geometry" />
        </mxCell>
        <mxCell id="d43gW3JYr1f1REupD9co-64" style="edgeStyle=orthogonalEdgeStyle;rounded=0;orthogonalLoop=1;jettySize=auto;html=1;exitX=1;exitY=0.5;exitDx=0;exitDy=0;endArrow=oval;endFill=0;entryX=0;entryY=0.5;entryDx=0;entryDy=0;" edge="1" parent="d43gW3JYr1f1REupD9co-1" source="d43gW3JYr1f1REupD9co-55" target="d43gW3JYr1f1REupD9co-65">
          <mxGeometry relative="1" as="geometry" />
        </mxCell>
        <mxCell id="d43gW3JYr1f1REupD9co-65" value="citta (0,1)" style="text;html=1;align=left;verticalAlign=middle;whiteSpace=wrap;rounded=0;spacingLeft=4;" vertex="1" parent="d43gW3JYr1f1REupD9co-1">
          <mxGeometry x="1070" y="668.89" width="60" height="30" as="geometry" />
        </mxCell>
        <mxCell id="d43gW3JYr1f1REupD9co-66" style="edgeStyle=orthogonalEdgeStyle;rounded=0;orthogonalLoop=1;jettySize=auto;html=1;entryX=0;entryY=0.5;entryDx=0;entryDy=0;endArrow=none;startFill=0;" edge="1" parent="d43gW3JYr1f1REupD9co-1" source="d43gW3JYr1f1REupD9co-68" target="d43gW3JYr1f1REupD9co-46">
          <mxGeometry relative="1" as="geometry" />
        </mxCell>
        <mxCell id="d43gW3JYr1f1REupD9co-67" value="(1,1)" style="edgeLabel;html=1;align=center;verticalAlign=middle;resizable=0;points=[];" vertex="1" connectable="0" parent="d43gW3JYr1f1REupD9co-66">
          <mxGeometry x="0.0195" y="-2" relative="1" as="geometry">
            <mxPoint as="offset" />
          </mxGeometry>
        </mxCell>
        <mxCell id="d43gW3JYr1f1REupD9co-68" value="tengono" style="rhombus;whiteSpace=wrap;html=1;" vertex="1" parent="d43gW3JYr1f1REupD9co-1">
          <mxGeometry x="180" y="478.89" width="120" height="80" as="geometry" />
        </mxCell>
        <mxCell id="Fy4t29Oi6BrKa9tZcwOt-0" style="edgeStyle=orthogonalEdgeStyle;rounded=0;orthogonalLoop=1;jettySize=auto;html=1;exitX=0.5;exitY=0;exitDx=0;exitDy=0;entryX=0;entryY=0.5;entryDx=0;entryDy=0;endArrow=none;startFill=0;" edge="1" parent="d43gW3JYr1f1REupD9co-1" source="Fy4t29Oi6BrKa9tZcwOt-2" target="Fy4t29Oi6BrKa9tZcwOt-19">
          <mxGeometry relative="1" as="geometry">
            <Array as="points">
              <mxPoint x="200" y="590" />
              <mxPoint x="690" y="590" />
              <mxPoint x="690" y="649" />
            </Array>
          </mxGeometry>
        </mxCell>
        <mxCell id="Fy4t29Oi6BrKa9tZcwOt-1" value="(1,n)" style="edgeLabel;html=1;align=center;verticalAlign=middle;resizable=0;points=[];" vertex="1" connectable="0" parent="Fy4t29Oi6BrKa9tZcwOt-0">
          <mxGeometry x="0.2" y="-1" relative="1" as="geometry">
            <mxPoint as="offset" />
          </mxGeometry>
        </mxCell>
        <mxCell id="Fy4t29Oi6BrKa9tZcwOt-2" value="PARTECIPANTI" style="rounded=0;whiteSpace=wrap;html=1;" vertex="1" parent="d43gW3JYr1f1REupD9co-1">
          <mxGeometry x="140" y="610" width="120" height="50" as="geometry" />
        </mxCell>
        <mxCell id="Fy4t29Oi6BrKa9tZcwOt-3" style="edgeStyle=orthogonalEdgeStyle;rounded=0;orthogonalLoop=1;jettySize=auto;html=1;endArrow=oval;endFill=1;exitX=1;exitY=0.5;exitDx=0;exitDy=0;entryX=0;entryY=0.5;entryDx=0;entryDy=0;" edge="1" parent="d43gW3JYr1f1REupD9co-1" source="Fy4t29Oi6BrKa9tZcwOt-2" target="Fy4t29Oi6BrKa9tZcwOt-4">
          <mxGeometry relative="1" as="geometry" />
        </mxCell>
        <mxCell id="Fy4t29Oi6BrKa9tZcwOt-5" style="edgeStyle=orthogonalEdgeStyle;rounded=0;orthogonalLoop=1;jettySize=auto;html=1;endArrow=oval;endFill=0;exitX=1;exitY=0.5;exitDx=0;exitDy=0;entryX=0;entryY=0.5;entryDx=0;entryDy=0;" edge="1" parent="d43gW3JYr1f1REupD9co-1" source="Fy4t29Oi6BrKa9tZcwOt-2" target="Fy4t29Oi6BrKa9tZcwOt-6">
          <mxGeometry relative="1" as="geometry" />
        </mxCell>
        <mxCell id="Fy4t29Oi6BrKa9tZcwOt-6" value="nome" style="text;html=1;align=left;verticalAlign=middle;whiteSpace=wrap;rounded=0;spacingLeft=4;" vertex="1" parent="d43gW3JYr1f1REupD9co-1">
          <mxGeometry x="310" y="640" width="60" height="30" as="geometry" />
        </mxCell>
        <mxCell id="Fy4t29Oi6BrKa9tZcwOt-7" style="edgeStyle=orthogonalEdgeStyle;rounded=0;orthogonalLoop=1;jettySize=auto;html=1;exitX=1;exitY=0.5;exitDx=0;exitDy=0;endArrow=oval;endFill=0;entryX=0;entryY=0.5;entryDx=0;entryDy=0;" edge="1" parent="d43gW3JYr1f1REupD9co-1" source="Fy4t29Oi6BrKa9tZcwOt-2" target="Fy4t29Oi6BrKa9tZcwOt-8">
          <mxGeometry relative="1" as="geometry" />
        </mxCell>
        <mxCell id="Fy4t29Oi6BrKa9tZcwOt-8" value="cognome" style="text;html=1;align=left;verticalAlign=middle;whiteSpace=wrap;rounded=0;spacingLeft=4;" vertex="1" parent="d43gW3JYr1f1REupD9co-1">
          <mxGeometry x="310" y="660" width="60" height="30" as="geometry" />
        </mxCell>
        <mxCell id="Fy4t29Oi6BrKa9tZcwOt-9" style="edgeStyle=orthogonalEdgeStyle;rounded=0;orthogonalLoop=1;jettySize=auto;html=1;endArrow=oval;endFill=0;exitX=1;exitY=0.5;exitDx=0;exitDy=0;entryX=0;entryY=0.5;entryDx=0;entryDy=0;" edge="1" parent="d43gW3JYr1f1REupD9co-1" source="Fy4t29Oi6BrKa9tZcwOt-2" target="Fy4t29Oi6BrKa9tZcwOt-10">
          <mxGeometry relative="1" as="geometry" />
        </mxCell>
        <mxCell id="Fy4t29Oi6BrKa9tZcwOt-10" value="data di nascita" style="text;html=1;align=left;verticalAlign=middle;whiteSpace=wrap;rounded=0;spacingLeft=4;" vertex="1" parent="d43gW3JYr1f1REupD9co-1">
          <mxGeometry x="310" y="680" width="120" height="30" as="geometry" />
        </mxCell>
        <mxCell id="Fy4t29Oi6BrKa9tZcwOt-11" style="edgeStyle=orthogonalEdgeStyle;rounded=0;orthogonalLoop=1;jettySize=auto;html=1;exitX=1;exitY=0.5;exitDx=0;exitDy=0;entryX=0;entryY=0.5;entryDx=0;entryDy=0;endArrow=oval;endFill=0;" edge="1" parent="d43gW3JYr1f1REupD9co-1" source="Fy4t29Oi6BrKa9tZcwOt-2" target="Fy4t29Oi6BrKa9tZcwOt-12">
          <mxGeometry relative="1" as="geometry" />
        </mxCell>
        <mxCell id="Fy4t29Oi6BrKa9tZcwOt-12" value="luogo di nascita" style="text;html=1;align=left;verticalAlign=middle;whiteSpace=wrap;rounded=0;spacingLeft=4;" vertex="1" parent="d43gW3JYr1f1REupD9co-1">
          <mxGeometry x="310" y="700" width="120" height="30" as="geometry" />
        </mxCell>
        <mxCell id="Fy4t29Oi6BrKa9tZcwOt-13" style="edgeStyle=orthogonalEdgeStyle;rounded=0;orthogonalLoop=1;jettySize=auto;html=1;exitX=1;exitY=0.5;exitDx=0;exitDy=0;endArrow=oval;endFill=0;entryX=0;entryY=0.5;entryDx=0;entryDy=0;" edge="1" parent="d43gW3JYr1f1REupD9co-1" source="Fy4t29Oi6BrKa9tZcwOt-2" target="Fy4t29Oi6BrKa9tZcwOt-14">
          <mxGeometry relative="1" as="geometry" />
        </mxCell>
        <mxCell id="Fy4t29Oi6BrKa9tZcwOt-14" value="aree di interesse (0,n)" style="text;html=1;align=left;verticalAlign=middle;whiteSpace=wrap;rounded=0;spacingLeft=4;" vertex="1" parent="d43gW3JYr1f1REupD9co-1">
          <mxGeometry x="310" y="740" width="140" height="30" as="geometry" />
        </mxCell>
        <mxCell id="b1dP8ZGszP36kNABTxAO-7" style="edgeStyle=orthogonalEdgeStyle;rounded=0;orthogonalLoop=1;jettySize=auto;html=1;exitX=1;exitY=0.5;exitDx=0;exitDy=0;entryX=0;entryY=0.5;entryDx=0;entryDy=0;endArrow=oval;endFill=0;" edge="1" parent="d43gW3JYr1f1REupD9co-1" source="Fy4t29Oi6BrKa9tZcwOt-2" target="Fy4t29Oi6BrKa9tZcwOt-17">
          <mxGeometry relative="1" as="geometry" />
        </mxCell>
        <mxCell id="Fy4t29Oi6BrKa9tZcwOt-17" value="numero di telefono" style="text;html=1;align=left;verticalAlign=middle;whiteSpace=wrap;rounded=0;spacingLeft=4;" vertex="1" parent="d43gW3JYr1f1REupD9co-1">
          <mxGeometry x="310" y="779" width="120" height="30" as="geometry" />
        </mxCell>
        <mxCell id="Fy4t29Oi6BrKa9tZcwOt-28" style="edgeStyle=orthogonalEdgeStyle;rounded=0;orthogonalLoop=1;jettySize=auto;html=1;exitX=0.5;exitY=0;exitDx=0;exitDy=0;entryX=0.5;entryY=1;entryDx=0;entryDy=0;endArrow=none;startFill=0;" edge="1" parent="d43gW3JYr1f1REupD9co-1" source="Fy4t29Oi6BrKa9tZcwOt-19" target="d43gW3JYr1f1REupD9co-46">
          <mxGeometry relative="1" as="geometry" />
        </mxCell>
        <mxCell id="Fy4t29Oi6BrKa9tZcwOt-29" value="(1,n)" style="edgeLabel;html=1;align=center;verticalAlign=middle;resizable=0;points=[];" vertex="1" connectable="0" parent="Fy4t29Oi6BrKa9tZcwOt-28">
          <mxGeometry x="0.263" y="-1" relative="1" as="geometry">
            <mxPoint x="-1" y="8" as="offset" />
          </mxGeometry>
        </mxCell>
        <mxCell id="Fy4t29Oi6BrKa9tZcwOt-19" value="partecipano" style="rhombus;whiteSpace=wrap;html=1;" vertex="1" parent="d43gW3JYr1f1REupD9co-1">
          <mxGeometry x="740" y="608.89" width="80" height="80" as="geometry" />
        </mxCell>
        <mxCell id="b1dP8ZGszP36kNABTxAO-2" style="edgeStyle=orthogonalEdgeStyle;rounded=0;orthogonalLoop=1;jettySize=auto;html=1;endArrow=oval;endFill=0;exitX=0.5;exitY=1;exitDx=0;exitDy=0;" edge="1" parent="d43gW3JYr1f1REupD9co-1" source="Fy4t29Oi6BrKa9tZcwOt-19" target="Fy4t29Oi6BrKa9tZcwOt-23">
          <mxGeometry relative="1" as="geometry" />
        </mxCell>
        <mxCell id="Fy4t29Oi6BrKa9tZcwOt-23" value="giudizio (0,1)" style="text;html=1;align=center;verticalAlign=middle;whiteSpace=wrap;rounded=0;" vertex="1" parent="d43gW3JYr1f1REupD9co-1">
          <mxGeometry x="740" y="730" width="80" height="30" as="geometry" />
        </mxCell>
        <mxCell id="b1dP8ZGszP36kNABTxAO-5" style="edgeStyle=orthogonalEdgeStyle;rounded=0;orthogonalLoop=1;jettySize=auto;html=1;exitX=1;exitY=0.5;exitDx=0;exitDy=0;endArrow=oval;endFill=0;entryX=0;entryY=0.5;entryDx=0;entryDy=0;" edge="1" parent="d43gW3JYr1f1REupD9co-1" source="Fy4t29Oi6BrKa9tZcwOt-2" target="Fy4t29Oi6BrKa9tZcwOt-25">
          <mxGeometry relative="1" as="geometry" />
        </mxCell>
        <mxCell id="Fy4t29Oi6BrKa9tZcwOt-25" value="sesso" style="text;html=1;align=left;verticalAlign=middle;whiteSpace=wrap;rounded=0;spacingLeft=4;" vertex="1" parent="d43gW3JYr1f1REupD9co-1">
          <mxGeometry x="310" y="720" width="60" height="30" as="geometry" />
        </mxCell>
        <mxCell id="b1dP8ZGszP36kNABTxAO-6" style="edgeStyle=orthogonalEdgeStyle;rounded=0;orthogonalLoop=1;jettySize=auto;html=1;exitX=1;exitY=0.5;exitDx=0;exitDy=0;entryX=0;entryY=0.5;entryDx=0;entryDy=0;endArrow=oval;endFill=0;" edge="1" parent="d43gW3JYr1f1REupD9co-1" source="Fy4t29Oi6BrKa9tZcwOt-2" target="Fy4t29Oi6BrKa9tZcwOt-27">
          <mxGeometry relative="1" as="geometry" />
        </mxCell>
        <mxCell id="Fy4t29Oi6BrKa9tZcwOt-27" value="azienda attuale" style="text;html=1;align=left;verticalAlign=middle;whiteSpace=wrap;rounded=0;spacingLeft=4;" vertex="1" parent="d43gW3JYr1f1REupD9co-1">
          <mxGeometry x="310" y="759" width="120" height="30" as="geometry" />
        </mxCell>
        <mxCell id="b1dP8ZGszP36kNABTxAO-1" style="edgeStyle=orthogonalEdgeStyle;rounded=0;orthogonalLoop=1;jettySize=auto;html=1;endArrow=oval;endFill=0;exitX=1;exitY=0.5;exitDx=0;exitDy=0;entryX=0;entryY=0.5;entryDx=0;entryDy=0;" edge="1" parent="d43gW3JYr1f1REupD9co-1" source="d43gW3JYr1f1REupD9co-55" target="b1dP8ZGszP36kNABTxAO-0">
          <mxGeometry relative="1" as="geometry" />
        </mxCell>
        <mxCell id="b1dP8ZGszP36kNABTxAO-0" value="nome sala" style="text;html=1;align=left;verticalAlign=middle;whiteSpace=wrap;rounded=0;spacingLeft=4;" vertex="1" parent="d43gW3JYr1f1REupD9co-1">
          <mxGeometry x="1070" y="540" width="90" height="30" as="geometry" />
        </mxCell>
        <mxCell id="b1dP8ZGszP36kNABTxAO-3" value="" style="edgeStyle=orthogonalEdgeStyle;rounded=0;orthogonalLoop=1;jettySize=auto;html=1;exitX=1;exitY=0.5;exitDx=0;exitDy=0;endArrow=oval;endFill=0;entryX=0;entryY=0.5;entryDx=0;entryDy=0;" edge="1" parent="d43gW3JYr1f1REupD9co-1" source="Fy4t29Oi6BrKa9tZcwOt-2" target="Fy4t29Oi6BrKa9tZcwOt-4">
          <mxGeometry relative="1" as="geometry">
            <mxPoint x="240" y="694" as="sourcePoint" />
            <mxPoint x="660" y="945" as="targetPoint" />
          </mxGeometry>
        </mxCell>
        <mxCell id="Fy4t29Oi6BrKa9tZcwOt-4" value="codice fiscale" style="text;html=1;align=left;verticalAlign=middle;whiteSpace=wrap;rounded=0;spacingLeft=4;" vertex="1" parent="d43gW3JYr1f1REupD9co-1">
          <mxGeometry x="310" y="620" width="90" height="30" as="geometry" />
        </mxCell>
      </root>
    </mxGraphModel>
  </diagram>
</mxfile>
